<svg width="239" height="246" viewBox="0 0 239 246" fill="none" xmlns="http://www.w3.org/2000/svg">
<rect width="225.968" height="225.968" transform="translate(0.568359)" fill="white"/>
<circle cx="113.552" cy="112.984" r="111.417" fill="#4B86B4" stroke="#4B86B4" stroke-width="3.13342"/>
<path d="M31.174 124.829L46.816 89.7348H54.8376L70.5297 124.829H62.0068L49.1723 93.8459H52.381L39.4963 124.829H31.174ZM38.995 117.309L41.1508 111.142H59.1993L61.4052 117.309H38.995ZM84.3275 125.23C82.0881 125.23 80.0827 124.796 78.3113 123.927C76.5733 123.058 75.2197 121.737 74.2504 119.966C73.2811 118.161 72.7965 115.872 72.7965 113.098V97.8566H80.6175V111.944C80.6175 114.184 81.0854 115.838 82.0213 116.908C82.9905 117.944 84.3442 118.462 86.0822 118.462C87.2854 118.462 88.355 118.211 89.2908 117.71C90.2267 117.175 90.962 116.373 91.4967 115.304C92.0315 114.201 92.2989 112.83 92.2989 111.192V97.8566H100.12V124.829H92.7V117.409L94.0536 119.565C93.1512 121.437 91.8143 122.857 90.0428 123.826C88.3048 124.762 86.3997 125.23 84.3275 125.23ZM103.774 124.829L115.856 108.987L115.706 113.298L104.125 97.8566H112.898L120.218 107.934L116.909 108.034L124.479 97.8566H132.802L121.17 113.148V108.936L133.203 124.829H124.329L116.658 114.1L119.917 114.551L112.296 124.829H103.774ZM152.759 125.23C150.386 125.23 148.347 124.729 146.643 123.726C144.938 122.723 143.635 121.203 142.732 119.164C141.83 117.092 141.379 114.485 141.379 111.343C141.379 108.168 141.847 105.561 142.782 103.522C143.752 101.483 145.089 99.9623 146.793 98.9596C148.498 97.9569 150.486 97.4556 152.759 97.4556C155.299 97.4556 157.572 98.0237 159.578 99.1601C161.616 100.297 163.221 101.901 164.391 103.973C165.594 106.045 166.195 108.502 166.195 111.343C166.195 114.15 165.594 116.59 164.391 118.663C163.221 120.735 161.616 122.356 159.578 123.526C157.572 124.662 155.299 125.23 152.759 125.23ZM136.816 124.829V87.6291H144.637V103.321L144.136 111.293L144.286 119.314V124.829H136.816ZM151.406 118.813C152.709 118.813 153.862 118.512 154.865 117.911C155.901 117.309 156.72 116.457 157.322 115.354C157.957 114.217 158.274 112.88 158.274 111.343C158.274 109.772 157.957 108.435 157.322 107.332C156.72 106.229 155.901 105.377 154.865 104.775C153.862 104.174 152.709 103.873 151.406 103.873C150.102 103.873 148.932 104.174 147.896 104.775C146.86 105.377 146.041 106.229 145.44 107.332C144.838 108.435 144.537 109.772 144.537 111.343C144.537 112.88 144.838 114.217 145.44 115.354C146.041 116.457 146.86 117.309 147.896 117.911C148.932 118.512 150.102 118.813 151.406 118.813ZM173.923 134.956C172.519 134.956 171.132 134.739 169.762 134.305C168.391 133.87 167.272 133.268 166.403 132.5L169.26 126.935C169.862 127.47 170.547 127.887 171.316 128.188C172.118 128.489 172.903 128.639 173.672 128.639C174.775 128.639 175.644 128.372 176.279 127.837C176.948 127.336 177.549 126.484 178.084 125.28L179.488 121.971L180.089 121.119L189.765 97.8566H197.286L185.103 126.484C184.234 128.656 183.231 130.361 182.095 131.597C180.992 132.834 179.755 133.703 178.385 134.204C177.048 134.706 175.561 134.956 173.923 134.956ZM178.535 125.882L166.503 97.8566H174.575L183.9 120.417L178.535 125.882Z" fill="white"/>
<circle cx="190.9" cy="197.286" r="47.1217" fill="white" stroke="#4B86B4" stroke-width="1.35828"/>
<path d="M210.432 175.192C209.981 175.441 205.079 178.104 199.54 181.127C194.001 184.14 184.744 189.19 178.958 192.333C173.181 195.484 168.357 198.157 168.243 198.267C167.978 198.516 167.783 198.977 167.783 199.346C167.783 199.714 168.084 200.313 168.349 200.498C168.658 200.71 180.424 204.893 180.557 204.838C180.618 204.81 182.315 203.327 184.32 201.539C186.325 199.742 191.828 194.839 196.537 190.646C201.254 186.444 205.202 182.924 205.326 182.813L205.538 182.62L205.326 182.896C205.202 183.053 200.874 188.499 195.697 195.005C190.521 201.502 186.281 206.856 186.263 206.884C186.254 206.939 205.22 213.749 206.183 214.044C206.633 214.173 207.411 213.768 207.658 213.279C207.835 212.92 213.047 176.28 212.976 175.893C212.905 175.496 212.534 175.026 212.155 174.87C211.651 174.648 211.306 174.713 210.432 175.192Z" fill="#4B86B4"/>
<path d="M184.301 214.136C184.301 219.306 184.292 219.195 184.795 219.61C185.378 220.089 186.165 220.043 186.659 219.509C187.013 219.112 191.924 212.145 191.871 212.099C191.836 212.063 184.407 209.39 184.336 209.39C184.318 209.39 184.301 211.528 184.301 214.136Z" fill="#4B86B4"/>
</svg>
