<svg width="28" height="29" viewBox="0 0 28 29" fill="none" xmlns="http://www.w3.org/2000/svg">
<path d="M25.2699 12.2414H24.341V12.1936H13.9619V16.8065H20.4794C19.5286 19.4918 16.9736 21.4194 13.9619 21.4194C10.1407 21.4194 7.04259 18.3212 7.04259 14.5C7.04259 10.6788 10.1407 7.58068 13.9619 7.58068C15.7258 7.58068 17.3305 8.24609 18.5524 9.333L21.8143 6.0711C19.7546 4.15156 16.9995 2.96777 13.9619 2.96777C7.59326 2.96777 2.42969 8.13134 2.42969 14.5C2.42969 20.8687 7.59326 26.0323 13.9619 26.0323C20.3306 26.0323 25.4942 20.8687 25.4942 14.5C25.4942 13.7268 25.4146 12.972 25.2699 12.2414Z" fill="#FFC107"/>
<path d="M3.75977 9.13234L7.54869 11.911C8.57391 9.37279 11.0568 7.58068 13.9624 7.58068C15.7262 7.58068 17.3309 8.24609 18.5528 9.333L21.8147 6.0711C19.755 4.15156 17 2.96777 13.9624 2.96777C9.53281 2.96777 5.69142 5.46854 3.75977 9.13234Z" fill="#FF3D00"/>
<path d="M13.9639 26.0326C16.9426 26.0326 19.6493 24.8926 21.6957 23.0388L18.1264 20.0185C16.9297 20.9286 15.4674 21.4208 13.9639 21.4197C10.9643 21.4197 8.41742 19.507 7.45793 16.8379L3.69727 19.7354C5.60585 23.4701 9.48185 26.0326 13.9639 26.0326Z" fill="#4CAF50"/>
<path d="M25.2708 12.2412H24.3419V12.1934H13.9629V16.8063H20.4803C20.0255 18.0843 19.2062 19.201 18.1237 20.0186L18.1255 20.0174L21.6947 23.0377C21.4421 23.2672 25.4951 20.2659 25.4951 14.4998C25.4951 13.7266 25.4156 12.9718 25.2708 12.2412Z" fill="#4B86B4"/>
</svg>
