<svg width="380" height="279" viewBox="0 0 380 279" fill="none" xmlns="http://www.w3.org/2000/svg">
<rect opacity="0.2" width="380" height="279" fill="#BABFCE"/>
<path d="M137.299 44.3525C136.425 44.5492 134.975 45.041 134.051 45.4836C131.728 46.5901 128.63 49.6392 127.53 51.9015C125.881 55.2456 125.956 52.2703 126.031 103.81L126.106 150.579L126.781 152.399C128.38 156.678 131.728 159.923 136.025 161.3L137.849 161.891H189.94H242.031L243.855 161.3C248.152 159.923 251.5 156.678 253.099 152.399L253.774 150.579L253.849 103.81C253.924 52.2703 253.999 55.2456 252.35 51.9015C251.25 49.6392 248.152 46.5901 245.854 45.5082C242.506 43.9098 245.854 43.9836 189.815 44.0082C147.867 44.0082 138.573 44.082 137.299 44.3525ZM212.95 65.8437C215.873 66.7536 218.596 68.8437 220.445 71.5977C224.917 78.3353 222.294 87.5809 214.899 91.171C205.905 95.5234 195.586 89.671 194.787 79.7614C194.262 73.2944 199.109 66.9749 205.755 65.4995C207.753 65.0323 210.802 65.2044 212.95 65.8437ZM172.401 93.63C172.901 93.9005 173.651 94.4414 174.075 94.8594C174.475 95.3021 180.321 102.728 187.067 111.408C198.31 125.891 199.409 127.219 200.658 127.908C202.257 128.793 204.256 128.891 205.83 128.178C206.379 127.932 208.678 125.941 210.951 123.752C215.324 119.547 215.798 119.228 218.072 119.228C219.546 119.228 221.395 120.236 222.469 121.613C224.518 124.293 237.784 143.03 238.309 144.039C239.333 145.883 238.933 147.579 237.309 148.342C236.535 148.711 232.537 148.735 190.889 148.735C147.043 148.735 145.294 148.711 144.469 148.268C143.295 147.678 142.471 146.424 142.471 145.317C142.471 144.825 142.745 143.817 143.045 143.08C144.294 140.129 167.529 95.2037 168.154 94.5398C169.453 93.1628 170.877 92.8677 172.401 93.63Z" fill="#BABFCE"/>
</svg>
