<svg width="60" height="60" viewBox="0 0 60 60" fill="none" xmlns="http://www.w3.org/2000/svg">
<rect width="60" height="60" rx="30" fill="white"/>
<path d="M44.7653 34.1713L45.8836 35.2404L45.8836 35.2404L44.7653 34.1713ZM44.7653 19.1176L43.647 20.1868L43.6471 20.1868L44.7653 19.1176ZM30.3731 19.1178L29.2548 20.1869L30.3731 21.3566L31.4914 20.1869L30.3731 19.1178ZM15.9807 19.1178L17.099 20.1869L17.099 20.1869L15.9807 19.1178ZM15.9807 34.1713L17.1012 33.1044L17.099 33.1021L15.9807 34.1713ZM16.0224 34.2147L17.1407 33.1455L17.1329 33.1375L16.0224 34.2147ZM30.3731 49.2248L29.2548 50.294C29.5467 50.5993 29.9507 50.7719 30.3731 50.7719C30.7955 50.7719 31.1995 50.5993 31.4914 50.294L30.3731 49.2248ZM45.8836 35.2404C50.4298 30.4853 50.4298 22.8035 45.8836 18.0485L43.6471 20.1868C47.0496 23.7456 47.0496 29.5432 43.647 33.1021L45.8836 35.2404ZM45.8836 18.0485C41.3001 13.2542 33.8383 13.2544 29.2548 18.0486L31.4914 20.1869C34.8563 16.6673 40.2822 16.6672 43.647 20.1868L45.8836 18.0485ZM31.4913 18.0486C26.9076 13.2544 19.4461 13.2544 14.8625 18.0486L17.099 20.1869C20.464 16.6673 25.8897 16.6673 29.2548 20.1869L31.4913 18.0486ZM14.8625 18.0486C10.3163 22.8036 10.3163 30.4855 14.8625 35.2404L17.099 33.1021C13.6965 29.5434 13.6965 23.7458 17.099 20.1869L14.8625 18.0486ZM14.8603 35.2381C14.8747 35.2533 14.8927 35.2721 14.9119 35.2919L17.1329 33.1375C17.1242 33.1286 17.1145 33.1183 17.1012 33.1044L14.8603 35.2381ZM14.9041 35.2838L29.2548 50.294L31.4914 48.1557L17.1406 33.1455L14.9041 35.2838ZM31.4914 50.294L45.8836 35.2404L43.6471 33.1021L29.2548 48.1557L31.4914 50.294Z" fill="#3B4B53"/>
</svg>
