<svg width="25" height="32" viewBox="0 0 25 32" fill="none" xmlns="http://www.w3.org/2000/svg">
<path fill-rule="evenodd" clip-rule="evenodd" d="M22.2484 13.3197C22.2484 19.5943 14.5291 27.2385 12.5714 29.0764C12.3121 29.3197 11.9363 29.3197 11.677 29.0764C9.71926 27.2385 2 19.5943 2 13.3197C2 7.36679 6.53276 2.54102 12.1242 2.54102C17.7156 2.54102 22.2484 7.36679 22.2484 13.3197Z" stroke="#3B4B53" stroke-width="3.71654" stroke-linecap="round"/>
<path d="M12.5254 17.7154C14.123 17.7154 15.4181 16.2961 15.4181 14.5452C15.4181 12.7943 14.123 11.375 12.5254 11.375C10.9279 11.375 9.63281 12.7943 9.63281 14.5452C9.63281 16.2961 10.9279 17.7154 12.5254 17.7154Z" stroke="#3B4B53" stroke-width="3.71654" stroke-linecap="round"/>
</svg>
