<svg width="320" height="320" viewBox="0 0 320 320" fill="none" xmlns="http://www.w3.org/2000/svg">
<path d="M160 320C248.366 320 320 248.366 320 160C320 71.6344 248.366 0 160 0C71.6344 0 0 71.6344 0 160C0 248.366 71.6344 320 160 320Z" fill="#FEB739"/>
<mask id="mask0_4361_10426" style="mask-type:luminance" maskUnits="userSpaceOnUse" x="0" y="0" width="320" height="320">
<path d="M160 320C248.366 320 320 248.366 320 160C320 71.6344 248.366 0 160 0C71.6344 0 0 71.6344 0 160C0 248.366 71.6344 320 160 320Z" fill="white"/>
</mask>
<g mask="url(#mask0_4361_10426)">
<path d="M266.249 227.192L281.717 235.206L289.731 219.739L274.264 211.725L266.249 227.192Z" fill="#2D2DAA"/>
<path d="M266.245 227.19L281.713 235.204L285.443 228.005L269.976 219.991L266.245 227.19Z" fill="#20208E"/>
<path d="M277.101 237.504C278.572 238.638 280.671 237.127 285.809 237.127C285.809 237.127 289.055 237.127 293.05 238.119C299.453 239.716 427.651 315.909 435.893 320.192C468.351 337.045 477.582 310.755 448.054 296.718C439.666 292.731 303.728 231.462 298.731 227.15C295.615 224.464 293.743 221.809 293.743 221.809C290.785 217.611 290.805 215.026 289.031 214.479C288.326 214.26 276.517 237.058 277.101 237.508V237.504Z" fill="#4A62C6"/>
<path d="M277.101 237.504C278.572 238.638 280.671 237.127 285.809 237.127C285.809 237.127 289.055 237.127 293.05 238.119C299.453 239.716 427.651 315.909 435.893 320.192C468.351 337.045 477.582 310.755 448.054 296.718C439.666 292.731 303.728 231.462 298.731 227.15C295.615 224.464 293.743 221.809 293.743 221.809C290.785 217.611 290.805 215.026 289.031 214.479C288.326 214.26 276.517 237.058 277.101 237.508V237.504Z" fill="#4A62C6"/>
<path d="M285.434 231.617C285.434 231.617 288.534 231.609 292.347 232.553C298.458 234.065 420.756 306.497 428.622 310.566C450.803 322.037 461.639 312.43 455.646 301.153C475.55 315.501 465.168 335.389 435.895 320.19C427.653 315.911 299.455 239.714 293.052 238.117C289.057 237.12 285.811 237.124 285.811 237.124C280.677 237.124 278.574 238.636 277.103 237.501C276.929 237.367 277.861 235.236 279.275 232.318C280.624 232.132 282.517 231.617 285.438 231.613L285.434 231.617Z" fill="#3552AF"/>
<path d="M258.389 227.36L263.644 230.083C265.411 230.999 267.591 230.31 268.507 228.539L276.623 212.874C277.539 211.107 276.85 208.927 275.08 208.011L269.824 205.288L258.393 227.356L258.389 227.36Z" fill="#4545CE"/>
<path d="M272.533 220.774L268.513 228.534C267.597 230.301 265.421 230.993 263.65 230.078L258.395 227.355L262.414 219.595L267.67 222.318C269.437 223.234 271.617 222.545 272.533 220.774Z" fill="#3535BC"/>
<path d="M210.662 133.745L217.474 120.599C218.064 119.458 219.468 119.013 220.609 119.603L300.072 160.776C301.213 161.367 301.658 162.77 301.067 163.911L294.256 177.058C293.665 178.198 292.261 178.644 291.12 178.053L211.657 136.881C210.516 136.29 210.071 134.886 210.662 133.745Z" fill="#4A62C6"/>
<path d="M165.282 221.337L159.541 232.419C158.654 234.13 159.322 236.235 161.033 237.122L238.428 277.222C240.139 278.108 242.244 277.44 243.131 275.729L248.872 264.648C249.759 262.937 249.091 260.831 247.38 259.945L169.985 219.845C168.274 218.958 166.169 219.626 165.282 221.337Z" fill="#4A62C6"/>
<path d="M221.634 120.133L241.639 130.498C239.929 129.611 237.822 130.279 236.939 131.989L231.197 143.072C230.309 144.782 230.978 146.889 232.688 147.773L212.682 137.407C210.972 136.52 210.304 134.417 211.191 132.707L216.933 121.624C217.821 119.914 219.924 119.245 221.634 120.133Z" fill="#3957B5"/>
<path d="M169.979 219.834L189.985 230.199C188.275 229.312 186.168 229.98 185.284 231.691L179.543 242.773C178.655 244.483 179.324 246.59 181.034 247.474L161.028 237.108C159.318 236.221 158.65 234.118 159.537 232.408L165.279 221.325C166.166 219.615 168.269 218.946 169.979 219.834Z" fill="#3957B5"/>
<path d="M206.129 153.858L280.425 192.349L279.287 188.427C278.489 185.679 279.862 183.025 282.569 182.093L286.431 180.764L212.134 142.272L213.273 146.195C214.071 148.942 212.697 151.597 209.991 152.529L206.129 153.858Z" fill="#3845B8"/>
<path d="M212.366 143.317L285.435 181.172C286.841 181.902 288.572 181.351 289.297 179.944L290.46 177.695L212.302 137.202L211.139 139.451C210.409 140.857 210.96 142.587 212.366 143.313V143.317Z" fill="#3E91E5"/>
<path d="M179.634 204.991L253.931 243.483L250.069 244.812C247.362 245.744 245.989 248.398 246.787 251.145L247.925 255.068L173.629 216.576L177.491 215.247C180.197 214.315 181.571 211.661 180.773 208.914L179.634 204.991Z" fill="#3845B8"/>
<path d="M213.271 146.191L212.132 142.269L228.665 150.835L229.804 154.757C230.602 157.505 229.228 160.159 226.522 161.091L222.66 162.42L206.127 153.854L209.989 152.525C212.696 151.593 214.069 148.938 213.271 146.191Z" fill="#213793"/>
<path d="M180.773 208.91L179.634 204.987L196.167 213.554L197.306 217.476C198.104 220.223 196.73 222.878 194.023 223.81L190.162 225.139L173.629 216.572L177.491 215.243C180.197 214.311 181.571 211.657 180.773 208.91Z" fill="#213793"/>
<path d="M174.29 215.992L248.027 254.192C249.247 254.824 249.725 256.327 249.093 257.547L247.756 260.128L169.598 219.635L170.935 217.054C171.567 215.834 173.07 215.356 174.29 215.988V215.992Z" fill="#3E91E5"/>
<path d="M183.28 202.619L253.773 239.144L276.8 194.702L206.306 158.177L183.28 202.619Z" fill="white"/>
<path d="M183.283 202.629L205.201 213.985L228.228 169.544L206.309 158.187L183.283 202.629Z" fill="white"/>
<path d="M180.223 199.154L177.871 203.695C177.57 204.275 177.797 204.989 178.377 205.289L254.433 244.696C255.013 244.997 255.727 244.77 256.028 244.19L258.38 239.65C258.681 239.069 258.454 238.355 257.874 238.055L181.818 198.648C181.238 198.347 180.524 198.574 180.223 199.154Z" fill="#59A1F7"/>
<path d="M203.773 153.701L201.965 157.191C201.514 158.061 201.854 159.132 202.724 159.583L277.73 198.446C278.6 198.897 279.671 198.557 280.122 197.686L281.93 194.196C282.381 193.326 282.041 192.255 281.171 191.804L206.166 152.941C205.295 152.49 204.224 152.83 203.773 153.701Z" fill="#59A1F7"/>
<path d="M211.137 139.456L212.3 137.207L232.877 147.868L230.393 152.658L212.361 143.314C210.955 142.584 210.408 140.858 211.133 139.452L211.137 139.456Z" fill="#3081D8"/>
<path d="M169.598 219.635L170.935 217.054C171.567 215.834 173.07 215.356 174.29 215.988L192.659 225.503L190.175 230.292L169.598 219.631V219.635Z" fill="#3081D8"/>
<path d="M178.898 205.547C178.027 205.097 177.686 204.023 178.136 203.152L179.943 199.667C180.393 198.796 181.467 198.456 182.338 198.905L201.339 208.748L197.898 215.39L178.898 205.547Z" fill="#3E91E5"/>
<path d="M202.718 159.575C201.847 159.126 201.506 158.052 201.956 157.18L203.764 153.696C204.213 152.824 205.287 152.484 206.158 152.934L225.159 162.777L221.719 169.418L202.718 159.575Z" fill="#3E91E5"/>
<path d="M257.705 184.701L277.11 194.754C277.682 195.05 278.391 194.823 278.691 194.252C278.987 193.681 278.76 192.971 278.188 192.672L258.783 182.618C258.211 182.322 257.502 182.549 257.202 183.121C256.906 183.692 257.133 184.401 257.705 184.701Z" fill="#69B4FF"/>
<path d="M265.902 168.876L285.308 178.929C285.879 179.225 286.588 178.998 286.888 178.427C287.184 177.855 286.957 177.146 286.386 176.846L266.98 166.793C266.408 166.497 265.699 166.724 265.399 167.295C265.104 167.867 265.331 168.576 265.902 168.876Z" fill="#4DA8F4"/>
<path d="M225.752 246.376L245.157 256.429C245.729 256.725 246.438 256.498 246.738 255.927C247.034 255.355 246.807 254.646 246.235 254.346L226.829 244.293C226.258 243.997 225.549 244.224 225.249 244.795C224.953 245.367 225.18 246.076 225.752 246.376Z" fill="#4DA8F4"/>
<path d="M234.093 230.278L253.499 240.332C254.071 240.627 254.78 240.4 255.08 239.829C255.375 239.258 255.148 238.549 254.577 238.249L235.171 228.195C234.6 227.9 233.891 228.126 233.591 228.698C233.295 229.269 233.522 229.978 234.093 230.278Z" fill="#69B4FF"/>
<path d="M284.907 170.916C287.455 172.237 290.616 171.232 291.937 168.683L292.991 166.645C294.312 164.096 293.307 160.935 290.758 159.614C288.209 158.293 285.048 159.298 283.727 161.847L282.674 163.885C281.353 166.434 282.358 169.595 284.907 170.916Z" fill="#5371D3"/>
<path d="M233.575 270C236.123 271.321 239.284 270.316 240.605 267.767L241.659 265.729C242.98 263.18 241.975 260.019 239.426 258.698C236.877 257.377 233.716 258.382 232.395 260.931L231.342 262.969C230.021 265.518 231.026 268.679 233.575 270Z" fill="#5371D3"/>
<path d="M130.685 285.92H298.449L307.331 296.614H121.803L130.685 285.92Z" fill="#213793"/>
<path d="M129.574 324.443H299.567C306.272 324.443 311.707 319.008 311.707 312.303V306.346C311.707 299.641 306.272 294.206 299.567 294.206H129.574C122.869 294.206 117.434 299.641 117.434 306.346V312.303C117.434 319.008 122.869 324.443 129.574 324.443Z" fill="#4A62C6"/>
<path d="M298.451 285.92H130.687V284.044C130.687 279.821 134.115 276.393 138.338 276.393H290.801C295.023 276.393 298.451 279.821 298.451 284.044V285.92Z" fill="#4A62C6"/>
<path d="M122.675 294.203H173.425C170.531 294.203 168.181 296.549 168.181 299.447V319.201C168.181 322.094 170.527 324.444 173.425 324.444H122.675C119.782 324.444 117.432 322.098 117.432 319.201V299.447C117.432 296.553 119.778 294.203 122.675 294.203Z" fill="#3756BC"/>
<path d="M137.098 276.394H187.847C184.31 276.394 181.441 279.262 181.441 282.8V285.92H130.691V282.8C130.691 279.262 133.56 276.394 137.098 276.394Z" fill="#3756BC"/>
<path d="M295.987 318.561H298.516C301.36 318.561 303.666 316.255 303.666 313.41V305.14C303.666 302.295 301.36 299.989 298.516 299.989H295.987C293.143 299.989 290.837 302.295 290.837 305.14V313.41C290.837 316.255 293.143 318.561 295.987 318.561Z" fill="#5371D3"/>
<path d="M145.114 140.891C144.105 139.176 143.603 138.321 142.878 137.349C141.642 135.692 140.552 134.654 137.435 131.87C134.396 129.151 132.877 127.794 131.925 127.008C128.063 123.827 126.134 122.234 123.443 120.861C122.057 120.152 119.573 118.908 116.101 118.279C113.139 117.745 110.728 117.886 108.949 118.061C99.3005 119.001 92.1565 119.702 87.8977 123.227C75.9316 133.143 84.3925 167.396 96.6585 170.759C99.5112 171.541 111.036 172.972 114.918 173.377C115.817 173.47 117.632 173.648 119.428 174.844C121.061 175.934 121.008 176.752 122.896 178.527C124.57 180.103 126.426 181.854 128.626 181.542C130.251 181.315 131.843 179.994 132.273 178.381C132.443 177.753 132.581 176.525 129.984 172.651C128.31 170.155 126.661 167.696 123.528 165.183C121.134 163.263 120.526 163.445 117.329 160.864C116.239 159.984 114.865 158.87 113.382 157.278C111.441 155.191 107.778 150.644 108.673 149.546C109.419 148.63 113.041 150.466 117.211 152.581C122.082 155.049 124.849 156.455 127.641 159.425C128.764 160.621 128.282 160.357 132.257 165.272C135.725 169.56 136.698 170.512 138.177 170.65C140.227 170.84 142.582 169.414 143.23 167.501C143.408 166.974 143.664 165.799 141.285 161.5C139.952 159.089 138.59 157.14 135.827 153.525C133.379 150.324 132.16 148.723 131.345 147.848C130.753 147.212 128.197 144.501 123.686 141.328C118.362 137.584 114.95 136.462 115.096 136.105C115.29 135.627 121.737 136.972 127.795 140.878C128.975 141.636 131.531 143.31 134.194 146.158C136.71 148.849 139.397 152.67 139.895 153.383C142.148 156.605 142.703 157.865 144.45 158.445C145.981 158.955 148.178 158.854 149.556 157.484C150.881 156.167 150.836 154.287 150.816 153.42C150.787 152.253 150.504 151.532 148.798 148.035C147.12 144.598 146.261 142.84 145.114 140.891Z" fill="#EF8C78"/>
<path d="M34.4606 195.04C31.3323 197.512 37.5605 210.621 48.3758 224.321C59.191 238.022 70.5655 246.495 73.6938 244.027C76.822 241.555 70.5209 229.079 59.7097 215.378C48.8945 201.678 37.593 192.573 34.4606 195.044V195.04Z" fill="#101E2B"/>
<path d="M64.8752 202.269C64.8752 202.269 56.6452 190.878 50.7898 188.127C49.7484 187.637 48.7799 187.993 48.3869 188.301C47.074 189.338 46.8106 191.279 46.5431 192.053C44.1686 198.869 62.3547 225.824 74.5477 225.873C75.4432 225.873 78.0812 225.889 78.8673 224.43C79.8074 222.692 77.603 219.847 76.205 218.012C72.2866 212.869 68.7693 207.431 64.8711 202.273L64.8752 202.269Z" fill="#52A0CC"/>
<path d="M147.292 154.471C146.202 154.686 144.549 154.451 142.944 152.007C132.036 135.422 119.024 128.29 107.731 130.486C106.908 130.644 109.976 131.285 114.599 133.529C116.698 134.551 119.118 135.908 121.723 137.748C123.616 138.514 125.727 139.547 127.793 140.88C128.972 141.638 131.529 143.311 134.192 146.16C136.708 148.851 139.395 152.672 139.893 153.385C142.146 156.607 142.701 157.867 144.448 158.446C145.979 158.957 148.176 158.856 149.553 157.486C150.879 156.169 150.834 154.289 150.814 153.422C150.797 152.688 150.676 152.133 150.169 150.95C149.558 152.899 148.536 154.232 147.292 154.475V154.471Z" fill="#E57B6A"/>
<path d="M130.202 176.265C128.585 177.465 126.579 176.828 125.886 176.614C123.305 175.799 121.923 173.587 121.437 172.914C116.984 166.735 99.3203 167.148 98.4248 170.325C98.368 170.531 98.364 170.803 98.518 171.155C102.858 171.954 111.627 173.032 114.917 173.376C115.817 173.469 117.632 173.648 119.427 174.843C121.06 175.933 121.008 176.751 122.896 178.526C124.569 180.103 126.425 181.853 128.626 181.541C130.251 181.314 131.843 179.993 132.273 178.38C132.402 177.89 132.516 177.035 131.332 174.851C131.093 175.366 130.737 175.864 130.202 176.261V176.265Z" fill="#E57B6A"/>
<path d="M140.549 166.131C139.678 166.742 138.268 167.196 137.065 166.698C135.658 166.114 131.57 159.404 126.221 154.067C119.397 147.256 107.326 144.253 106.43 145.878C106.179 146.332 106.71 147.328 108.963 149.363C110.114 148.99 113.44 150.671 117.209 152.584C122.08 155.052 124.847 156.458 127.639 159.428C128.762 160.624 128.279 160.36 132.255 165.276C135.723 169.563 136.696 170.515 138.175 170.653C140.225 170.843 142.58 169.417 143.228 167.504C143.378 167.063 143.576 166.179 142.272 163.416C142.037 164.53 141.441 165.507 140.553 166.131H140.549Z" fill="#E57B6A"/>
<path d="M142.55 110.993C138.482 109.263 135.277 108.283 133.17 107.602C131.488 107.055 132.797 107.444 125.385 104.814C117.395 101.981 118.031 102.297 116.596 101.698C114.7 100.908 112.69 100.405 110.814 99.5623C110.056 99.2219 109.189 98.8045 107.989 98.8126C106.478 98.8248 105.347 99.5096 104.744 99.8864C101.348 102.006 98.4021 104.518 98.3696 104.546C94.589 107.772 94.516 106.743 89.9816 110.426C86.8372 112.979 86.9547 113.404 84.1992 115.362C82.5256 116.549 81.934 116.784 78.5626 119.065C74.7333 121.659 74.1133 122.291 73.696 123.276C73.0557 124.791 73.7446 125.115 73.1165 128.199C72.8774 129.37 72.5046 130.468 71.7631 132.616C70.981 134.889 70.3327 136.542 70.2314 136.806C68.7645 140.595 68.9752 145.056 68.7807 149.116C68.5011 155 67.411 159.263 65.4214 167.031C64.6515 170.042 63.8816 173.008 62.3904 176.87C60.9762 180.529 59.797 183.9 57.463 186.899C54.0754 191.259 50.2906 193.317 46.4532 195.591C40.2696 199.246 34.6006 203.715 28.5102 207.52C16.9331 214.749 14.283 217.083 7.3457 221.869L42.0404 252.151C47.5311 245.051 53.9862 237.069 58.8448 232.157C64.0275 226.922 69.8626 222.063 69.8626 222.063C72.5938 219.79 73.9594 218.656 75.5397 217.582C79.9485 214.591 82.4811 213.915 86.6751 210.466C89.2401 208.359 90.0141 207.2 90.4679 206.078C90.9866 204.789 98.4426 196.089 102.681 191.133C105.882 187.393 108.115 184.783 110.141 180.776C111.499 178.093 112.982 175.164 113.456 171.18C114.534 162.128 109.618 154.194 108.751 152.836C107.491 150.867 105.627 148.521 103.982 144.319C103.609 143.366 102.997 141.786 102.507 139.618C101.145 133.596 102.641 131.546 101.113 127.595C100.578 126.213 100.258 124.763 99.7393 123.377C99.249 122.076 98.9856 121.537 99.2409 120.978C99.6542 120.074 100.841 120.415 102.843 119.531C103.694 119.155 103.719 118.988 106.762 116.715C108.528 115.398 109.416 114.738 109.663 114.612C112.143 113.364 114.919 114.9 117.281 115.301C123.262 116.314 130.451 117.534 137.185 121.181C138.194 121.728 140.257 122.903 142.652 122.449C143.069 122.368 145.476 121.865 146.732 119.6C147.887 117.521 147.454 115.078 146.408 113.53C145.667 112.432 144.706 111.913 142.546 110.993H142.55Z" fill="#FBA78D"/>
<path d="M146.395 113.507C146.464 113.985 146.428 114.459 146.229 114.888C145.35 116.761 141.829 116.684 138.773 116.586C134.344 116.44 133.238 115.529 123.699 113.405C115.842 111.659 117.475 112.473 115.769 111.849C114.12 111.246 112.442 110.427 110.708 111.096C109.869 111.42 109.768 111.809 108.455 113.016C107.576 113.823 105.424 115.804 102.867 116.728C100.144 117.713 98.9039 116.801 98.2394 117.587C97.7693 118.146 97.7653 119.358 99.2565 122.045C99.1268 121.607 99.1025 121.295 99.2443 120.983C99.6577 120.079 100.845 120.42 102.847 119.536C103.698 119.159 103.722 118.993 106.765 116.72C108.532 115.403 109.419 114.743 109.667 114.617C112.146 113.369 114.922 114.905 117.285 115.306C123.266 116.319 130.454 117.539 137.189 121.186C138.198 121.733 140.26 122.908 142.655 122.454C143.073 122.373 145.48 121.87 146.736 119.605C147.891 117.526 147.457 115.083 146.412 113.535C146.408 113.527 146.399 113.519 146.395 113.511V113.507Z" fill="#EF8C78"/>
<path d="M145.505 25.9244L101.566 143.442L146.874 160.382L190.812 42.8642L145.505 25.9244Z" fill="#5B9AD8"/>
<path d="M131.048 139.879C134.481 139.869 137.256 137.078 137.245 133.645C137.235 130.212 134.444 127.437 131.011 127.447C127.578 127.458 124.803 130.249 124.813 133.682C124.824 137.115 127.615 139.89 131.048 139.879Z" fill="#D1E8F2"/>
<path d="M163.643 58.3922C166.828 57.1117 168.372 53.4915 167.092 50.3062C165.811 47.121 162.191 45.5768 159.006 46.8573C155.82 48.1378 154.276 51.758 155.557 54.9432C156.837 58.1285 160.457 59.6727 163.643 58.3922Z" fill="#D1E8F2"/>
<path d="M105.883 141.468L144.897 156.052L186.476 44.8279L147.462 30.2441L105.883 141.472V141.468ZM182.043 45.6545L142.097 152.518L110.32 140.637L150.262 33.7776L182.039 45.6586L182.043 45.6545Z" fill="#D1E8F2"/>
<path d="M165.696 100.452C169.399 90.5475 163.667 79.2525 152.892 75.224C142.118 71.1956 130.381 75.9592 126.678 85.8638C122.975 95.7685 128.707 107.064 139.482 111.092C150.256 115.12 161.993 110.357 165.696 100.452Z" fill="#D1E8F2"/>
<path d="M164.121 99.8643C167.499 90.8274 162.209 80.4996 152.304 76.7964C142.4 73.0932 131.631 77.4169 128.253 86.4538C124.874 95.4906 130.164 105.818 140.069 109.522C149.973 113.225 160.742 108.901 164.121 99.8643Z" fill="#D1E8F2"/>
<path d="M161.709 97.7387L157.908 96.3164C158.321 94.805 158.402 93.3745 158.155 92.0576C157.9 90.7123 157.345 89.5452 156.506 88.5889C155.667 87.6326 154.634 86.9194 153.43 86.4696C152.47 86.109 151.505 85.955 150.565 86.0077C149.625 86.0604 148.73 86.3076 147.903 86.7452C147.113 87.1504 146.42 87.6893 145.832 88.3539C145.265 88.9982 144.564 89.8978 143.75 91.0202L137.465 88.67C138.34 87.6367 139.462 87.1788 140.795 87.3125C142.064 87.43 142.911 86.9437 143.312 85.874C143.523 85.3067 143.506 84.7394 143.255 84.1883C143.004 83.6412 142.599 83.2563 142.052 83.0537C141.569 82.8754 140.986 82.8065 140.313 82.8511C139.645 82.8956 138.944 83.0577 138.234 83.3292C137.302 83.6655 136.496 84.1842 135.844 84.8609C135.216 85.5174 134.632 86.3764 134.105 87.4138L132.509 86.8181C131.362 86.3886 130.896 86.8992 130.706 87.4057C130.519 87.9041 130.543 88.5889 131.719 89.0266L133.283 89.6101C132.687 91.8145 132.748 93.7271 133.469 95.2912C134.199 96.8837 135.491 98.0345 137.307 98.7153C138.701 99.234 139.969 99.3677 141.079 99.1084C142.189 98.849 143.174 98.3263 144.013 97.5523C144.827 96.8027 145.691 95.8018 146.578 94.5821L153.637 97.2201C153.215 97.7671 152.757 98.1764 152.275 98.4276C151.757 98.7031 151.234 98.8571 150.719 98.8977C150.197 98.9382 149.447 98.9382 148.495 98.8977C148.029 98.8733 147.607 98.9909 147.251 99.2461C146.894 99.5014 146.618 99.8742 146.436 100.365C146.209 100.976 146.229 101.572 146.497 102.139C146.764 102.707 147.165 103.092 147.692 103.29C148.381 103.55 149.147 103.663 149.974 103.635C150.796 103.606 151.663 103.404 152.555 103.031C153.442 102.662 154.293 102.091 155.079 101.333C155.845 100.6 156.53 99.6514 157.114 98.5127L161.247 100.057C161.753 100.247 162.15 100.304 162.458 100.231C162.783 100.158 163.026 99.9107 163.18 99.4974C163.35 99.0476 163.297 98.6869 163.026 98.4276C162.774 98.1885 162.345 97.9575 161.709 97.7225V97.7387ZM140.488 94.501C139.924 94.7847 139.239 94.7806 138.449 94.4848C137.619 94.1728 137.08 93.7068 136.849 93.0909C136.622 92.4912 136.533 91.7375 136.581 90.85L142.283 92.9815C141.638 93.7109 141.035 94.2214 140.488 94.501ZM154.63 95.0927L148.045 92.633C148.75 91.7577 149.439 91.1377 150.095 90.7893C150.768 90.4327 151.55 90.4205 152.421 90.7447C153.236 91.0486 153.856 91.5997 154.261 92.3818C154.654 93.1355 154.775 94.0472 154.626 95.0927H154.63Z" fill="#5B9AD8"/>
<path d="M166.855 26.5852L100.723 133.204L141.828 158.701L207.96 52.0817L166.855 26.5852Z" fill="#7BC6EF"/>
<path d="M126.269 126.125C124.462 129.042 125.358 132.872 128.275 134.683C131.193 136.49 135.022 135.595 136.833 132.677C138.641 129.76 137.745 125.93 134.828 124.119C131.91 122.312 128.081 123.207 126.269 126.125Z" fill="#DCEFF9"/>
<path d="M182.994 58.0204C184.165 54.7932 182.498 51.2279 179.271 50.0571C176.043 48.8864 172.478 50.5534 171.307 53.7806C170.137 57.0079 171.804 60.5731 175.031 61.7439C178.258 62.9147 181.823 61.2476 182.994 58.0204Z" fill="#DCEFF9"/>
<path d="M105.354 132.127L140.749 154.086L203.347 53.1784L167.951 31.2197L105.354 132.127ZM198.833 53.1217L138.695 150.07L109.864 132.184L170.006 35.2354L198.837 53.1217H198.833Z" fill="#DCEFF9"/>
<path d="M172.039 103.622C177.612 94.636 174.206 82.436 164.431 76.3727C154.656 70.3094 142.213 72.6788 136.639 81.6648C131.065 90.6509 134.471 102.851 144.247 108.914C154.022 114.977 166.465 112.608 172.039 103.622Z" fill="#DCEFF9"/>
<path d="M170.609 102.734C175.694 94.5351 172.532 83.3703 163.546 77.7965C154.56 72.2228 143.153 74.3507 138.067 82.5494C132.982 90.7482 136.144 101.913 145.13 107.487C154.116 113.061 165.523 110.933 170.609 102.734Z" fill="#DCEFF9"/>
<path d="M168.676 100.201L165.228 98.0612C165.929 96.6591 166.29 95.2733 166.306 93.936C166.322 92.5664 166.006 91.3143 165.37 90.2121C164.734 89.1099 163.862 88.2103 162.772 87.5336C161.901 86.9947 160.989 86.6502 160.057 86.5165C159.125 86.3828 158.197 86.4517 157.302 86.7191C156.451 86.9582 155.661 87.3553 154.956 87.8902C154.275 88.4129 153.412 89.1545 152.391 90.0986L146.689 86.5611C147.751 85.7182 148.938 85.4913 150.223 85.8844C151.446 86.245 152.37 85.9371 152.974 84.9645C153.294 84.4499 153.387 83.8907 153.25 83.3031C153.112 82.7156 152.792 82.2617 152.293 81.9538C151.856 81.6823 151.297 81.4999 150.628 81.4148C149.963 81.3297 149.246 81.35 148.492 81.4756C147.512 81.6255 146.62 81.97 145.85 82.5089C145.105 83.0276 144.363 83.757 143.646 84.6728L142.199 83.7732C141.158 83.1289 140.603 83.5382 140.315 83.9961C140.036 84.4459 139.926 85.1226 140.988 85.7831L142.406 86.6624C141.389 88.7087 141.077 90.593 141.474 92.2706C141.879 93.9766 142.917 95.3583 144.566 96.3795C145.83 97.1616 147.05 97.5425 148.189 97.502C149.327 97.4655 150.397 97.1454 151.369 96.5537C152.314 95.9783 153.355 95.1679 154.469 94.1427L160.872 98.1138C160.349 98.5677 159.822 98.8756 159.3 99.0337C158.736 99.1998 158.193 99.2525 157.683 99.1877C157.16 99.1228 156.427 98.9769 155.499 98.7541C155.045 98.6406 154.611 98.673 154.21 98.8513C153.809 99.0296 153.468 99.3457 153.193 99.7874C152.849 100.343 152.751 100.93 152.901 101.542C153.051 102.15 153.371 102.608 153.849 102.903C154.473 103.293 155.203 103.556 156.017 103.69C156.832 103.823 157.723 103.795 158.667 103.605C159.612 103.414 160.556 103.021 161.476 102.437C162.371 101.866 163.226 101.072 164.024 100.071L167.773 102.397C168.231 102.681 168.607 102.814 168.928 102.806C169.26 102.798 169.543 102.604 169.778 102.231C170.034 101.822 170.05 101.461 169.835 101.153C169.637 100.869 169.26 100.557 168.684 100.201H168.676ZM148.501 92.8622C147.893 93.0324 147.22 92.8906 146.507 92.4489C145.753 91.9829 145.32 91.4156 145.21 90.7672C145.109 90.1351 145.166 89.3814 145.384 88.5183L150.559 91.7276C149.785 92.3192 149.092 92.7001 148.501 92.8663V92.8622ZM162.254 96.2174L156.281 92.5137C157.144 91.7924 157.942 91.3183 158.655 91.1076C159.385 90.8888 160.155 91.0306 160.945 91.5209C161.682 91.9788 162.185 92.6434 162.428 93.4903C162.663 94.3048 162.606 95.2246 162.254 96.2215V96.2174Z" fill="#7BC6EF"/>
<path d="M197.084 41.8947L100.469 121.936L131.327 159.184L227.943 79.1435L197.084 41.8947Z" fill="#7BC6EF"/>
<path d="M126.938 123.353C124.296 125.541 123.927 129.46 126.115 132.102C128.303 134.744 132.222 135.113 134.864 132.925C137.506 130.736 137.874 126.818 135.686 124.176C133.498 121.534 129.58 121.165 126.938 123.353Z" fill="#FEFFE6"/>
<path d="M193.547 68.1687C190.905 70.3569 190.536 74.2753 192.724 76.9174C194.913 79.5594 198.831 79.9281 201.473 77.74C204.115 75.5518 204.484 71.6333 202.296 68.9913C200.107 66.3493 196.189 65.9805 193.547 68.1687Z" fill="white"/>
<path d="M105.199 122.383L131.773 154.46L223.215 78.7088L196.641 46.6318L105.199 122.383ZM131.101 149.999L109.458 123.874L197.313 51.0933L218.956 77.2176L131.101 149.999Z" fill="white"/>
<path d="M177.495 116.581C185.638 109.835 186.29 97.1855 178.952 88.3274C171.613 79.4692 159.063 77.757 150.92 84.503C142.777 91.249 142.125 103.899 149.463 112.757C156.802 121.615 169.352 123.327 177.495 116.581Z" fill="white"/>
<path d="M176.423 115.29C183.852 109.135 184.406 97.5444 177.66 89.4014C170.914 81.2585 159.423 79.6469 151.993 85.8018C144.564 91.9567 144.01 103.547 150.756 111.69C157.502 119.833 168.993 121.445 176.423 115.29Z" fill="white"/>
<path d="M171.567 96.5389C170.724 96.1134 169.824 95.8865 168.892 95.8541C168.009 95.8095 167.134 95.9351 166.295 96.2188C165.48 96.4943 164.427 96.9239 163.159 97.4952L158.88 92.3287C160.152 91.8667 161.351 92.0329 162.445 92.8109C163.491 93.5443 164.463 93.5443 165.347 92.8149C165.813 92.4259 166.08 91.9275 166.137 91.3278C166.194 90.7281 166.032 90.1932 165.659 89.7434C165.331 89.3463 164.856 88.9978 164.253 88.702C163.649 88.4102 162.964 88.1995 162.21 88.082C161.234 87.9118 160.277 87.9564 159.374 88.2198C158.503 88.4751 157.567 88.9289 156.598 89.5692L155.512 88.2563C154.73 87.3121 154.074 87.5228 153.656 87.8672C153.247 88.2076 152.927 88.8114 153.725 89.7758L154.791 91.0604C153.178 92.6772 152.279 94.3629 152.12 96.0769C151.962 97.8234 152.505 99.4646 153.741 100.956C154.69 102.098 155.727 102.848 156.821 103.172C157.911 103.501 159.029 103.537 160.136 103.286C161.214 103.043 162.462 102.605 163.839 101.989L168.645 107.792C168.005 108.055 167.405 108.181 166.862 108.161C166.279 108.14 165.744 108.015 165.282 107.792C164.808 107.565 164.159 107.192 163.353 106.686C162.96 106.43 162.539 106.325 162.101 106.365C161.663 106.406 161.242 106.596 160.837 106.929C160.334 107.346 160.055 107.873 160.002 108.497C159.953 109.121 160.107 109.656 160.468 110.089C160.938 110.657 161.546 111.139 162.275 111.524C163.005 111.909 163.856 112.164 164.812 112.286C165.768 112.407 166.789 112.334 167.847 112.071C168.876 111.816 169.942 111.333 171.016 110.636L173.832 114.036C174.176 114.454 174.493 114.701 174.796 114.794C175.112 114.891 175.445 114.794 175.785 114.518C176.158 114.21 176.292 113.874 176.182 113.513C176.085 113.181 175.826 112.768 175.392 112.245L172.803 109.121C173.913 108.015 174.699 106.815 175.137 105.551C175.587 104.258 175.688 102.97 175.437 101.722C175.185 100.474 174.642 99.343 173.824 98.3543C173.172 97.5641 172.414 96.9522 171.571 96.5267L171.567 96.5389ZM158.596 98.881C157.968 98.8486 157.376 98.5042 156.837 97.8518C156.27 97.171 156.039 96.4943 156.144 95.846C156.246 95.2138 156.545 94.5169 157.028 93.7713L160.91 98.4596C159.99 98.7716 159.212 98.9175 158.596 98.8851V98.881ZM171.599 103.906C171.563 104.757 171.214 105.608 170.566 106.438L166.084 101.025C167.13 100.615 168.037 100.421 168.783 100.445C169.541 100.47 170.23 100.846 170.821 101.564C171.376 102.232 171.64 103.018 171.603 103.902L171.599 103.906Z" fill="#7BC6EF"/>
<path d="M99.7409 123.377C99.595 122.988 98.1524 118.964 98.0187 119.045C97.7918 119.187 98.351 120.01 97.9498 122.696C97.8647 123.251 97.808 123.114 97.1637 125.411C96.8881 126.396 96.568 127.526 96.3046 128.742C96.0656 129.832 95.7292 131.388 95.7171 132.417C95.6887 134.731 97.9376 141.113 100.843 144.319C101.759 145.328 102.273 141.814 103.643 143.403C103.295 142.463 102.873 141.198 102.517 139.614C101.155 133.592 102.65 131.542 101.123 127.591C100.588 126.209 100.264 124.759 99.749 123.373L99.7409 123.377Z" fill="#EF8C78"/>
<path d="M132.687 104.631C129 103.723 125.782 107.046 124.793 108.071C123.391 109.522 118.363 117.266 117.187 119.66C116.442 121.18 116.547 121.423 115.34 124.75C114.898 125.97 113.719 129.207 112.694 131.302C111.749 133.231 110.339 135.427 106.275 139.439C101.882 143.779 98.7825 145.906 95.0221 148.881C87.8335 154.57 84.2392 157.415 82.4563 160.194C74.9962 171.84 84.5472 199.521 93.9847 197.442C101.834 195.712 114.173 178.255 115.66 169.725C115.911 168.278 116.782 162.01 119.473 157.224C119.748 156.738 120.535 155.38 121.483 153.403C122.257 151.786 135.365 120.617 136.678 117.12C138.052 113.461 138.003 112.229 137.947 111.653C137.687 108.955 135.884 105.421 132.687 104.635V104.631Z" fill="#FBA78D"/>
<path d="M134.763 102.43C133.3 102.228 132.182 102.795 131.505 103.139C129.937 103.938 129.151 105.076 127.575 107.358C126.31 109.189 126.092 109.988 126.002 110.555C125.913 111.118 125.723 112.293 126.351 113.351C126.606 113.776 126.87 113.983 128.851 115.101C131.513 116.609 131.963 116.763 132.603 116.791C133.714 116.84 134.565 116.459 134.844 116.325C135.322 116.094 135.922 115.701 136.635 114.818C139.273 111.556 138.973 107.759 138.973 107.759C138.884 106.632 138.779 105.283 137.742 104.075C137.494 103.792 136.469 102.661 134.763 102.426V102.43Z" fill="#FFEFE1"/>
<path d="M129.277 112.548C128.081 112.414 127.056 112.742 126.258 113.172C126.286 113.233 126.319 113.289 126.355 113.35C126.61 113.776 126.874 113.982 128.855 115.101C131.518 116.608 131.967 116.762 132.608 116.79C132.952 116.807 133.268 116.774 133.556 116.73C133.414 115.696 132.988 114.744 132.283 114.003C131.173 112.836 129.767 112.605 129.281 112.552L129.277 112.548Z" fill="white"/>
<path d="M134.763 102.43C133.3 102.228 132.181 102.795 131.505 103.139C130.524 103.638 129.851 104.27 129.098 105.23C130.289 104.537 132.044 103.885 134.025 104.323C136.217 104.805 138.053 106.487 138.957 108.735C138.997 108.132 138.969 107.767 138.969 107.767C138.88 106.641 138.774 105.291 137.737 104.084C137.49 103.8 136.465 102.669 134.759 102.434L134.763 102.43Z" fill="white"/>
<path d="M67.0779 217.789C56.8583 222.773 50.5491 229.272 41.3507 238.75C38.9356 241.238 36.792 243.617 34.8672 245.886L42.0395 252.147C47.5302 245.047 53.9853 237.065 58.8439 232.153C64.0266 226.918 69.8617 222.059 69.8617 222.059C72.5929 219.786 73.9585 218.652 75.5388 217.578C79.9476 214.587 82.2492 213.607 86.6742 210.462C89.9808 208.116 93.6115 202.325 93.7817 201.75C90.4508 204.866 86.8484 207.196 84.2429 208.817C76.3736 213.716 70.8505 215.941 67.0698 217.784L67.0779 217.789Z" fill="#EF8C78"/>
<path d="M78.611 224.827C75.2639 226.813 68.671 221.31 57.7382 208.448C44.593 192.989 48.3899 188.301 48.3899 188.301L32.4648 201.154C32.4648 201.154 39.1307 224.726 62.1065 238.706C63.3667 239.472 79.4619 224.321 78.611 224.823V224.827Z" fill="#94D6EA"/>
<path d="M78.6093 224.827C76.648 225.99 73.5765 224.579 69.1718 220.637C66.8904 222.963 64.451 225.317 61.8293 227.675C59.4831 229.782 57.1531 231.752 54.8555 233.592C57.068 235.391 59.479 237.113 62.1008 238.709C63.361 239.475 79.4562 224.324 78.6052 224.827H78.6093Z" fill="#85CCE5"/>
<path d="M47.0957 220.081C30.7776 199.252 34.4611 195.038 34.4611 195.038C34.4611 195.038 2.75687 218.253 -20.5391 235.434L0.994178 302.567L73.678 244.037C73.4065 244.248 68.475 247.376 47.0917 220.085L47.0957 220.081Z" fill="#364353"/>
<path d="M73.6809 244.034C73.4945 244.18 70.7634 245.959 60.714 235.856C58.0882 238.178 16.9789 272.881 -3.26172 289.296L-0.295529 298.539L2.86516 301.06L73.6809 244.034Z" fill="#293949"/>
<path d="M100.47 144.009C100.275 143.697 99.8701 143.604 99.5581 143.799C97.9291 144.828 96.3245 145.922 94.7765 147.057C91.5753 149.403 88.5119 151.996 85.6672 154.776C85.4079 155.031 85.4039 155.453 85.6632 155.712C85.9185 155.967 86.3318 155.971 86.5911 155.716C89.3912 152.981 92.402 150.428 95.5545 148.118C97.0782 147.004 98.6585 145.926 100.259 144.913C100.567 144.719 100.66 144.317 100.47 144.009Z" fill="#E5806E"/>
<path d="M123.345 127.278C122.377 127.027 121.38 126.926 120.371 126.97C119.99 126.986 119.698 127.323 119.743 127.704C119.783 128.052 120.087 128.303 120.436 128.287C121.311 128.247 122.174 128.336 123.013 128.555C124.938 129.053 126.315 130.107 127.219 131.047C127.462 131.298 127.855 131.322 128.123 131.095C128.414 130.848 128.435 130.41 128.171 130.135C127.142 129.061 125.558 127.854 123.341 127.278H123.345Z" fill="#E5806E"/>
<path d="M126.684 132.395C124.897 132.018 123.227 131.357 121.712 130.43C121.262 130.154 120.825 129.854 120.403 129.53C120.124 129.315 119.722 129.356 119.495 129.627C119.256 129.915 119.301 130.344 119.597 130.571C120.055 130.924 120.533 131.252 121.023 131.552C122.668 132.561 124.476 133.274 126.413 133.683C126.777 133.76 127.134 133.517 127.199 133.149C127.259 132.8 127.032 132.468 126.684 132.395Z" fill="#E5806E"/>
</g>
</svg>
