<svg width="320" height="320" viewBox="0 0 320 320" fill="none" xmlns="http://www.w3.org/2000/svg">
<path d="M160 320C248.366 320 320 248.366 320 160C320 71.6344 248.366 0 160 0C71.6344 0 0 71.6344 0 160C0 248.366 71.6344 320 160 320Z" fill="#FEB739"/>
<mask id="mask0_4361_10899" style="mask-type:luminance" maskUnits="userSpaceOnUse" x="0" y="0" width="320" height="320">
<path d="M160 320C248.366 320 320 248.366 320 160C320 71.6344 248.366 0 160 0C71.6344 0 0 71.6344 0 160C0 248.366 71.6344 320 160 320Z" fill="white"/>
</mask>
<g mask="url(#mask0_4361_10899)">
<path d="M317.804 219.575C273.753 201.709 238.22 201.956 238.22 201.956C229.743 202.017 168.263 202.442 166.837 214.36C166.419 217.837 171.391 221.034 181.335 227.432C190.437 233.288 201.625 238.823 221.144 244.613C225.609 245.938 238.329 247.904 262.594 250.594C286.988 253.301 304.274 256.855 318.672 248.167C330.856 240.812 320.714 220.758 317.796 219.575H317.804Z" fill="#3845B8"/>
<path d="M283.773 234.022C268.763 225.281 259.257 211.537 253.766 203.039C250.812 202.699 248.219 202.468 246.047 202.306C246.861 216.744 272.585 235.914 272.114 245.684C272.013 247.791 270.688 249.781 268.512 251.276C289.835 253.805 305.476 256.139 318.682 248.168C320.696 246.952 322.098 245.384 323.026 243.618C310.529 243.719 296.65 241.519 283.777 234.022H283.773Z" fill="#283AA3"/>
<path d="M208.704 97.1185C204.3 94.7764 201.957 91.093 200.705 89.1196C197.435 83.9692 198.015 80.8734 196.309 75.9257C192.958 66.2126 184.72 60.73 182.313 59.1335C171.538 51.9652 160.208 52.7473 156.723 53.1363C148.359 54.0683 134.177 58.4081 133.131 66.3301C132.609 70.3013 135.526 74.1265 138.727 78.3246C139.623 79.4956 143.169 83.9976 148.323 87.1218C162.372 95.6314 174.577 85.5293 181.911 92.3208C188.646 98.5571 185.733 113.907 183.909 123.51C181.757 134.856 177.393 143.289 181.51 147.503C184.164 150.218 178.548 146.332 179.987 149.772C180.939 152.054 173.418 148.788 171.591 150.49C169.265 152.658 175.335 165.811 175.882 166.893C178.301 171.683 172.956 170.686 179.987 170.71C186.028 170.73 189.987 172.136 197.776 168.785C203.331 166.399 201.528 163.542 206.699 160.697C211.865 157.852 213.174 158.189 214.296 156.301C216.014 153.399 213.733 151.264 215.496 147.503C216.764 144.796 218.255 145.25 219.892 142.705C222.522 138.621 222.218 131.947 219.094 127.911C216.136 124.09 212.043 124.434 211.897 122.315C211.699 119.426 219.309 119.029 222.295 113.117C224.253 109.247 223.932 103.594 221.096 100.721C218.065 97.6534 214.645 100.283 208.7 97.1226L208.704 97.1185Z" fill="#36476B"/>
<path d="M141.927 70.7276C136.294 69.8361 131.889 73.7829 125.933 79.1237C119.396 84.9831 116.451 91.0817 114.736 94.7165C111.815 100.92 109.829 105.135 111.539 109.11C112.82 112.096 115.13 112.489 116.738 116.708C117.407 118.466 118.525 121.404 117.537 124.305C115.916 129.055 110.453 128.39 108.338 133.504C106.814 137.187 108.257 140.903 108.338 141.102C110.352 146.074 115.539 145.903 115.936 149.498C116.232 152.164 113.468 153.072 113.136 157.894C113.063 158.98 112.962 160.426 113.537 161.893C114.396 164.086 116.629 165.99 123.534 167.891C132.898 170.468 137.579 171.756 140.727 169.491C145.578 165.998 143.73 156.439 142.725 148.298C138.061 110.52 140.788 104.794 143.924 99.9154C148.28 93.1361 153.5 92.3946 153.921 86.3204C154.375 79.7396 148.86 71.8257 141.927 70.7276Z" fill="#36476B"/>
<path d="M194.312 182.684C190.909 181.719 185.86 180.285 182.715 175.888C180.908 173.36 180.474 170.892 179.915 167.492C178.651 159.781 180.361 156.365 179.915 153.099C178.083 139.69 140.013 129.572 135.13 137.506C133.915 139.479 135.771 140.918 137.529 148.702C138.948 154.979 142.149 169.166 135.532 176.293C133.096 178.911 129.927 179.944 123.934 181.889C116.004 184.467 112.491 183.506 111.94 185.087C110.724 188.551 125.365 199.569 142.728 203.881C146.306 204.768 164.752 209.035 184.713 200.683C196.509 195.748 206.631 187.327 205.504 184.689C204.884 183.239 201.347 184.689 194.308 182.692L194.312 182.684Z" fill="#EA9488"/>
<path d="M179.917 153.096C178.085 139.687 140.015 129.569 135.132 137.503C133.917 139.476 135.773 140.915 137.531 148.699C138.188 151.605 139.225 156.208 139.497 161.022C144.197 169.604 150.595 175.196 157.014 175.97C164.199 176.837 172.886 171.853 179.443 162.424C179.374 158.072 180.249 155.543 179.913 153.096H179.917Z" fill="#C36252"/>
<path d="M223.542 269.709C225.215 257.694 231.93 228.725 235.479 217.128C239.844 202.856 256.279 203.286 252.033 196.024C251.032 194.314 245.071 189.65 233.498 185.485C220.843 180.93 207.507 179.058 189.597 179.791C184.268 180.01 187.186 193.5 159.696 194.29C131.533 195.1 130.042 178.284 125.937 179.082C113.542 181.493 99.8898 184.545 86.3515 191.478C81.0917 194.168 76.3385 197.187 75.4268 198.346C64.6034 212.144 101.061 230.419 98.8848 323.307C98.747 329.231 98.3256 340.395 95.6309 357.398H225.272C221.175 328.737 219.49 298.779 223.546 269.701L223.542 269.709Z" fill="#3845B8"/>
<path d="M159.693 194.294C131.53 195.104 130.039 178.288 125.934 179.086C122.96 179.666 119.912 180.282 116.812 180.979C124.398 190.145 137.163 201.377 154.875 202.662C159.3 202.982 179.492 204.449 190.858 190.068C193.593 186.611 195.25 182.952 196.259 179.641C194.108 179.649 191.887 179.702 189.594 179.795C184.265 180.014 187.183 193.504 159.693 194.294Z" fill="white"/>
<path d="M190.711 102.714C190.193 100.935 188.86 97.0005 185.914 93.1185C180.881 86.4851 174.179 84.0011 170.718 82.7207C162.059 79.5154 154.72 80.3299 151.527 80.7229C147.69 81.193 143.897 81.7036 139.93 84.3213C138.317 85.387 135.509 87.5711 132.733 92.3203C130.423 96.2711 126.699 104.461 127.137 119.51C127.481 131.42 127.814 142.997 135.934 153.897C138.353 157.147 146.851 168.55 159.526 168.692C165.223 168.756 169.571 166.524 171.52 165.494C180.265 160.879 184.021 152.852 186.716 147.102C189.921 140.261 190.869 134.43 191.514 130.309C192.64 123.068 192.324 117.65 191.915 110.717C191.72 107.419 191.453 105.251 190.716 102.718L190.711 102.714Z" fill="#EA9488"/>
<path d="M162.884 149.746C161.969 149.872 159.606 150.144 156.652 149.746C152.588 149.199 151.21 147.623 150.42 148.134C148.783 149.187 152.827 154.135 160.161 154.111C166.548 154.09 170.883 149.698 169.668 148.243C168.93 147.36 167.253 149.143 162.888 149.75L162.884 149.746Z" fill="#DD7472"/>
<path d="M163.663 134.796L163.594 134.82C163.205 134.958 162.978 135.351 163.03 135.76C163.075 136.125 163.063 136.554 162.88 136.972C162.346 138.212 160.688 138.475 159.999 138.532C158.589 138.645 156.725 138.062 155.967 136.51C155.732 136.032 155.647 135.545 155.639 135.116C155.627 134.694 155.323 134.346 154.906 134.281L154.833 134.269C154.306 134.188 153.828 134.601 153.84 135.136C153.856 135.902 154.031 136.635 154.355 137.296C155.396 139.427 157.75 140.339 159.679 140.339C159.837 140.339 159.995 140.331 160.149 140.319C162.289 140.145 163.889 139.184 164.538 137.681C164.874 136.903 164.898 136.129 164.817 135.501C164.744 134.95 164.189 134.605 163.671 134.792L163.663 134.796Z" fill="#DD7472"/>
<path d="M171.438 116.988C169.861 117.048 168.65 118.961 168.739 121.267C168.824 123.568 170.178 125.388 171.754 125.331C173.33 125.27 174.542 123.358 174.453 121.052C174.367 118.75 173.014 116.931 171.438 116.988Z" fill="#543434"/>
<path d="M181.204 107.691C179.158 107.355 176.236 107.262 173.067 108.372C171.098 109.065 169.262 110.147 167.682 111.537C166.973 112.161 166.945 113.259 167.646 113.899L167.706 113.956C168.298 114.495 169.202 114.515 169.801 113.984C170.839 113.065 172.277 112.08 174.141 111.423C176.67 110.536 179.004 110.609 180.649 110.876C181.451 111.006 182.225 110.528 182.444 109.746L182.464 109.669C182.716 108.765 182.128 107.845 181.2 107.691H181.204Z" fill="#36476B"/>
<path d="M145.009 116.988C143.433 116.927 142.08 118.746 141.994 121.052C141.909 123.354 143.117 125.27 144.693 125.331C146.27 125.392 147.623 123.573 147.708 121.267C147.793 118.965 146.586 117.049 145.009 116.988Z" fill="#49302A"/>
<path d="M150.517 112.638C148.681 111.605 146.663 110.928 144.592 110.661C141.261 110.231 138.425 110.928 136.492 111.682C135.617 112.022 135.236 113.043 135.665 113.878L135.702 113.951C136.075 114.672 136.934 114.98 137.691 114.685C139.248 114.081 141.517 113.526 144.175 113.87C146.132 114.121 147.745 114.79 148.952 115.475C149.649 115.868 150.529 115.665 150.995 115.013L151.043 114.944C151.595 114.174 151.339 113.104 150.517 112.642V112.638Z" fill="#36476B"/>
<path d="M178.127 128.024C175.813 128.182 174.018 129.487 174.115 130.934C174.216 132.38 176.174 133.426 178.487 133.264C180.801 133.106 182.596 131.801 182.499 130.354C182.398 128.908 180.445 127.862 178.127 128.024Z" fill="#EA847D"/>
<path d="M139.913 128.006C137.377 127.512 135.067 128.395 134.759 129.984C134.451 131.568 136.254 133.258 138.795 133.752C141.331 134.247 143.641 133.363 143.949 131.775C144.257 130.19 142.454 128.501 139.913 128.006Z" fill="#EA847D"/>
<path d="M187.594 81.7125C176.904 72.3479 161.859 71.5902 151.408 76.1164C148.645 77.3118 141.168 80.5495 140.613 86.1131C140.026 91.9685 147.372 97.6659 153.207 99.7082C160.517 102.269 170.133 100.721 171.402 100.506C173.959 100.073 176.313 99.4245 179.599 100.105C179.834 100.154 184.186 101.106 187.598 104.303C195.273 111.496 192.274 124.499 193.997 124.694C195.638 124.88 200.926 113.376 198.393 100.701C197.554 96.5029 195.074 88.2567 187.598 81.7084L187.594 81.7125Z" fill="#36476B"/>
<path d="M197.789 119.406C194.596 118.316 191.427 121.858 191.253 122.064C186.318 127.936 186.48 141.794 190.232 143.115C191.067 143.411 193.125 141.17 194.361 140.425C198.105 138.164 201.854 133.812 201.987 128.228C202.06 125.124 200.865 120.456 197.789 119.406Z" fill="#F6A698"/>
<path d="M192.984 135.586C192.984 135.586 193.086 135.488 193.223 135.351C193.082 135.484 192.984 135.573 192.984 135.586Z" fill="#C36252"/>
<path d="M193.365 125.835C192.157 126.127 191.149 127.116 190.63 128.461C190.439 128.951 190.711 129.507 191.177 129.612C191.533 129.689 191.874 129.462 192.02 129.089C192.348 128.25 192.952 127.643 193.669 127.472C194.646 127.237 195.663 127.898 196.044 128.643C196.457 129.454 196.279 130.795 195.553 132.319C195.018 133.441 194.22 134.357 193.653 134.932C194.066 134.527 194.378 134.215 193.628 134.957C193.503 135.082 193.393 135.192 193.3 135.281C193.203 135.378 193.102 135.475 192.984 135.593C191.525 137.031 192.717 137.242 192.826 137.246C193.863 137.303 195.006 136.002 195.63 135.167C197.13 133.154 198.483 130.021 197.356 127.809C196.712 126.544 195.087 125.426 193.361 125.839L193.365 125.835Z" fill="#DD7472"/>
<path d="M193.3 135.278C193.425 135.153 193.535 135.047 193.628 134.954C193.636 134.946 193.644 134.938 193.652 134.93C193.506 135.076 193.348 135.23 193.219 135.355C193.243 135.331 193.267 135.307 193.3 135.278Z" fill="#C36252"/>
<path d="M199.151 119.652C197.607 118.647 195.998 118.975 195.39 119.097C193.133 119.55 191.65 121.22 190.86 122.395C190.593 122.792 190.694 123.351 191.075 123.607C191.403 123.826 191.833 123.732 192.063 123.388C192.7 122.436 193.883 121.098 195.642 120.742C196.14 120.641 197.311 120.405 198.373 121.098C199.37 121.747 199.75 122.885 200.026 123.712C200.723 125.811 200.751 128.174 200.103 130.739C198.895 135.516 195.751 139.228 194.219 139.402C193.745 139.455 193.567 139.86 193.356 140.326C192.785 141.598 192.076 142.765 190.759 142.692C190.098 142.656 189.839 142.47 189.762 141.412C189.729 140.974 189.405 140.634 189.008 140.638C188.566 140.646 188.222 141.068 188.259 141.554C188.348 142.786 188.757 144.257 190.67 144.358C193.166 144.492 194.284 141.991 194.706 141.051C194.718 141.027 194.726 141.003 194.738 140.982C197.019 140.334 200.273 136.229 201.554 131.168C202.469 127.537 201.999 124.782 201.44 123.112C201.128 122.172 200.601 120.596 199.147 119.648L199.151 119.652Z" fill="#DD7472"/>
<path d="M190.729 129.254C190.615 129.493 191.349 129.85 191.859 130.806C192.844 132.654 191.969 134.838 192.264 134.923C192.483 134.988 193.103 133.817 193.233 132.508C193.294 131.908 193.415 130.693 192.706 129.874C192.029 129.092 190.862 128.978 190.729 129.254Z" fill="#E5837C"/>
<path d="M120.336 119.406C117.264 120.456 116.065 125.124 116.138 128.228C116.272 133.808 120.02 138.16 123.764 140.425C124.996 141.17 127.054 143.407 127.893 143.115C131.646 141.794 131.808 127.936 126.872 122.064C126.698 121.858 123.529 118.316 120.336 119.406Z" fill="#F6A698"/>
<path d="M124.896 135.351C125.034 135.488 125.136 135.586 125.136 135.586C125.136 135.573 125.038 135.488 124.896 135.351Z" fill="#C36252"/>
<path d="M124.756 125.837C123.03 125.42 121.409 126.538 120.761 127.806C119.634 130.019 120.987 133.155 122.487 135.165C123.111 136.004 124.254 137.301 125.291 137.244C125.404 137.236 126.596 137.029 125.133 135.591C125.011 135.473 124.914 135.376 124.817 135.279C124.724 135.189 124.61 135.08 124.489 134.954C123.739 134.213 124.051 134.525 124.464 134.93C123.897 134.355 123.095 133.439 122.564 132.316C121.838 130.793 121.66 129.451 122.073 128.641C122.454 127.895 123.471 127.235 124.448 127.47C125.165 127.644 125.769 128.252 126.097 129.087C126.243 129.46 126.583 129.691 126.94 129.61C127.41 129.504 127.678 128.949 127.487 128.459C126.968 127.113 125.959 126.125 124.752 125.833L124.756 125.837Z" fill="#DD7472"/>
<path d="M124.489 134.954C124.582 135.047 124.692 135.153 124.817 135.278C124.846 135.307 124.87 135.331 124.898 135.355C124.773 135.23 124.615 135.076 124.465 134.93C124.473 134.938 124.481 134.946 124.489 134.954Z" fill="#C36252"/>
<path d="M129.117 140.644C128.72 140.636 128.396 140.976 128.364 141.418C128.291 142.475 128.027 142.662 127.367 142.698C126.046 142.767 125.337 141.604 124.769 140.332C124.559 139.866 124.38 139.461 123.906 139.408C122.379 139.234 119.234 135.522 118.022 130.744C117.374 128.179 117.398 125.813 118.099 123.718C118.375 122.887 118.756 121.753 119.753 121.104C120.814 120.411 121.985 120.646 122.484 120.748C124.247 121.104 125.426 122.446 126.062 123.394C126.293 123.738 126.722 123.831 127.051 123.613C127.432 123.361 127.533 122.798 127.265 122.401C126.475 121.226 124.992 119.556 122.735 119.102C122.131 118.981 120.519 118.653 118.975 119.658C117.52 120.606 116.993 122.178 116.681 123.122C116.122 124.796 115.652 127.551 116.568 131.178C117.848 136.239 121.106 140.344 123.383 140.992C123.392 141.013 123.404 141.037 123.416 141.061C123.837 142.001 124.96 144.501 127.452 144.368C129.364 144.262 129.774 142.791 129.863 141.564C129.899 141.077 129.555 140.656 129.113 140.648L129.117 140.644Z" fill="#DD7472"/>
<path d="M125.415 129.878C124.706 130.696 124.827 131.916 124.888 132.512C125.018 133.817 125.638 134.988 125.856 134.927C126.152 134.842 125.277 132.658 126.262 130.81C126.772 129.854 127.51 129.497 127.392 129.258C127.258 128.982 126.091 129.096 125.415 129.878Z" fill="#E5837C"/>
<path d="M159.998 127.234C164.843 127.234 168.771 122.849 168.771 117.44C168.771 112.03 164.843 107.646 159.998 107.646C155.152 107.646 151.225 112.03 151.225 117.44C151.225 122.849 155.152 127.234 159.998 127.234Z" fill="#021549"/>
<path d="M140.666 110.395C137.825 109.204 135.005 109.419 129.365 109.856C124.332 110.245 122.768 110.955 122.152 111.254C120.036 112.292 116.385 114.804 116.77 116.53C117.763 120.988 145.853 120.655 146.801 115.886C147.19 113.941 143.032 111.392 140.666 110.395Z" fill="#C36252"/>
<path d="M141.483 138.05C134.849 137.875 133.65 139.395 127.92 139.18C124.058 139.034 120.249 138.889 118.231 136.275C116.801 134.419 117.064 132.077 117.587 127.397C117.862 124.937 118.823 117.088 123.398 113.028C124.544 112.01 125.436 111.658 125.659 111.573C127.839 110.746 129.079 111.686 132.118 111.573C135.157 111.459 135.019 110.475 136.798 110.766C139.943 111.281 140.247 114.328 143.095 114.64C145.429 114.896 147.84 113.137 147.776 112.059C147.731 111.342 146.621 111.212 144.384 109.154C143.711 108.534 143.671 108.416 143.091 107.861C143.091 107.861 141.138 105.993 138.731 104.794C137.102 103.979 136.847 104.396 131.304 103.663C128.621 103.306 125.922 103.132 123.232 102.857C122.466 102.78 121.364 102.662 120.164 103.181C119.848 103.319 119.439 103.533 117.583 105.28C116.582 106.22 116.088 106.735 114.981 107.812C114.981 107.812 114.005 108.765 112.903 109.802C111.209 111.399 109.953 112.424 108.06 114C105.99 115.722 103.639 117.708 102.894 118.36C98.9307 121.805 98.0473 124.256 94.1735 129.338C92.2082 131.919 92.277 131.493 84.8089 139.671C79.2291 145.777 80.1003 145.019 73.8316 151.941C66.0798 160.499 63.689 162.829 59.1384 168.571C56.4721 171.934 55.1389 173.616 54.6162 174.544C47.1115 187.883 56.1195 210.345 61.8817 210.223C65.0789 210.158 64.7669 203.201 75.2822 185.197C75.2822 185.197 79.8855 177.319 87.5522 169.373C89.5094 167.343 91.418 165.584 94.1735 164.044C96.6899 162.638 97.5287 162.748 103.7 160.653C107.667 159.303 110.589 158.315 114.195 156.617C117.769 154.935 117.611 154.631 121.623 152.743C124.228 151.515 126.85 150.291 130.501 149.189C134.164 148.087 136.604 147.349 140.028 147.252C140.992 147.224 143.606 147.204 147.293 146.928C149.988 146.729 150.973 146.563 151.491 145.797C152.399 144.452 151.406 141.952 150.037 140.469C149.097 139.452 147.322 138.2 141.479 138.046L141.483 138.05Z" fill="#F6A698"/>
<path d="M141.484 138.048C140.674 138.028 139.949 138.032 139.284 138.053C137.712 139.211 136.841 140.455 134.502 141.91C124.579 148.069 112.301 142.972 111.822 144.897C111.535 146.043 115.769 148.382 119.627 149.172C124.149 150.096 127.849 148.835 129.49 148.252C134.292 146.55 134.154 144.633 139.41 142.907C141.367 142.263 143.912 141.46 147.121 142.011C149.05 142.344 150.614 143.061 151.765 143.75C151.538 142.603 150.857 141.355 150.039 140.472C149.098 139.455 147.324 138.202 141.48 138.048H141.484Z" fill="#DD7472"/>
<path d="M138.958 114.472C137.872 113.491 136.389 113.09 134.958 113.386L127.705 114.265C126.084 114.46 125.01 116.044 125.419 117.625L131.421 140.576H140.125C143.747 140.576 147.257 139.3 150.032 136.966C153.541 134.016 153.886 128.825 151.001 125.437L159.839 122.816V112.697L139.606 115.052L138.962 114.468L138.958 114.472Z" fill="#03133F"/>
<path d="M142.494 112.656C141.209 112.012 141.274 111.177 139.373 110.18C138.883 109.925 136.496 108.673 133.777 109.211C132.586 109.446 132.578 109.779 131.302 109.965C129.563 110.22 128.518 109.763 127.428 109.641C125.41 109.418 123.809 110.419 121.617 111.793C118.258 113.896 109.007 121.242 110.315 125.031C110.781 126.381 112.678 127.519 117.536 127.876C117.553 127.718 117.573 127.556 117.589 127.394C117.865 124.934 118.825 117.085 123.4 113.025C124.547 112.007 125.438 111.655 125.661 111.57C127.841 110.743 129.081 111.683 132.12 111.57C135.159 111.456 135.021 110.472 136.8 110.763C139.945 111.278 140.249 114.325 143.097 114.637C145.209 114.868 147.381 113.454 147.733 112.384C145.132 113.414 143.527 113.17 142.498 112.656H142.494Z" fill="#EA9488"/>
<path d="M133.235 106.393L132.911 106.405C131.241 106.462 130.633 106.368 129.993 106.267C129.288 106.158 128.486 106.036 126.298 106.081C124.223 106.125 122.079 106.17 119.348 106.737C118.205 106.976 117.063 107.28 115.956 107.645C115.701 107.73 115.567 108.01 115.653 108.265C115.742 108.516 116.013 108.646 116.264 108.565C117.338 108.212 118.436 107.916 119.543 107.685C122.189 107.138 124.288 107.094 126.318 107.049C128.425 107.005 129.146 107.118 129.847 107.223C130.532 107.329 131.185 107.43 132.943 107.369L133.271 107.357C134.414 107.317 135.399 107.28 135.865 107.839C136.144 108.18 136.412 108.917 136.128 109.497C136.088 109.578 136.039 109.651 135.978 109.724C135.84 109.89 135.832 110.129 135.958 110.307C136.14 110.562 136.517 110.587 136.72 110.348C136.829 110.218 136.918 110.08 136.995 109.93C137.453 109.01 137.149 107.876 136.61 107.228C135.84 106.3 134.576 106.344 133.235 106.397V106.393Z" fill="#DD7472"/>
<path d="M144.911 110.145C144.773 110.048 144.615 109.939 144.437 109.809C143.967 109.464 143.797 109.306 143.557 109.088C143.331 108.877 143.051 108.618 142.435 108.127C141.13 107.086 140.19 106.332 138.885 105.655C137.97 105.177 136.985 104.796 135.952 104.525C135.684 104.456 135.413 104.614 135.352 104.886C135.295 105.141 135.445 105.396 135.696 105.461C136.665 105.716 137.585 106.073 138.44 106.519C139.659 107.155 140.571 107.88 141.831 108.889C142.419 109.359 142.674 109.598 142.901 109.805C143.152 110.036 143.351 110.222 143.865 110.599C144.052 110.737 144.214 110.85 144.356 110.948C144.834 111.28 144.988 111.397 145.073 111.604C145.227 111.977 145.105 112.52 144.716 113.184C144.587 113.403 144.652 113.683 144.858 113.829C145.089 113.987 145.409 113.914 145.551 113.671C146.102 112.722 146.244 111.9 145.964 111.231C145.766 110.753 145.421 110.514 144.907 110.153L144.911 110.145Z" fill="#DD7472"/>
<path d="M110.324 142.57C107.775 139.353 107.872 135.406 106.932 135.467C106.207 135.511 106.268 137.845 105.157 140.633C102.888 146.318 97.126 148.227 97.8918 149.511C98.7874 151.015 100.668 147.1 104.671 146.768C106.697 146.598 108.634 147.072 109.351 147.254C111.321 147.749 111.803 148.255 113.225 148.709C116.815 149.852 120.888 148.891 120.973 148.065C121.086 146.971 114.149 147.412 110.316 142.574L110.324 142.57Z" fill="#CC6F62"/>
<path d="M145.951 125.644L159.833 121.527V111.409L137.23 114.039L145.951 125.644Z" fill="#0E2F77"/>
<path d="M150.247 123.373L138.958 113.181C137.872 112.201 136.389 111.8 134.958 112.095L127.705 112.975C126.084 113.169 125.01 114.754 125.419 116.334L131.421 139.285H140.125C143.747 139.285 147.257 138.009 150.032 135.675C153.825 132.49 153.926 126.687 150.251 123.368L150.247 123.373Z" fill="#07195B"/>
<path d="M135.066 144.543C142.043 137.566 142.043 126.254 135.066 119.277C128.088 112.3 116.776 112.3 109.799 119.277C102.822 126.254 102.822 137.566 109.799 144.543C116.776 151.52 128.088 151.52 135.066 144.543Z" fill="#0E2F77"/>
<path d="M125.83 146.32C133.785 144.443 138.711 136.473 136.834 128.518C134.956 120.564 126.986 115.637 119.032 117.515C111.077 119.392 106.151 127.362 108.028 135.317C109.906 143.271 117.876 148.198 125.83 146.32Z" fill="#07195B"/>
<path d="M136.905 129.891C136.905 138.064 130.28 144.689 122.107 144.689C115.097 144.689 109.225 139.815 107.693 133.27C108.382 140.807 114.716 146.707 122.431 146.707C130.604 146.707 137.23 140.082 137.23 131.909C137.23 130.746 137.096 129.615 136.841 128.529C136.881 128.979 136.905 129.433 136.905 129.891Z" fill="#021549"/>
<path d="M123.401 143.386C130.453 143.386 136.17 137.67 136.17 130.618C136.17 123.566 130.453 117.85 123.401 117.85C116.349 117.85 110.633 123.566 110.633 130.618C110.633 137.67 116.349 143.386 123.401 143.386Z" fill="#258AEF"/>
<path d="M127.699 118.589C130.195 120.919 131.759 124.238 131.759 127.925C131.759 134.976 126.041 140.693 118.991 140.693C117.483 140.693 116.037 140.43 114.695 139.952C116.977 142.079 120.036 143.384 123.403 143.384C130.454 143.384 136.172 137.666 136.172 130.616C136.172 125.072 132.634 120.352 127.699 118.589Z" fill="#1978E0"/>
<path d="M166.204 120.392C167.661 116.875 165.991 112.843 162.474 111.386C158.957 109.929 154.925 111.599 153.468 115.116C152.011 118.633 153.681 122.665 157.198 124.122C160.715 125.579 164.747 123.909 166.204 120.392Z" fill="#031544"/>
<path d="M143.043 118.727C142.447 118.727 141.965 119.209 141.965 119.804C141.965 120.4 142.447 120.882 143.043 120.882C143.638 120.882 144.121 120.4 144.121 119.804C144.121 119.209 143.638 118.727 143.043 118.727Z" fill="#183B93"/>
<path d="M114.726 125.385C115.901 128.805 122.96 124.073 121.667 121.832C120.294 119.457 113.839 122.8 114.726 125.385Z" fill="#6EC4FF"/>
<path d="M112.869 133.377C112.123 133.187 111.451 133.215 110.92 133.312C111.544 136.21 113.145 138.742 115.369 140.541C116.378 138.985 116.548 137.105 115.778 135.638C114.875 133.92 113.027 133.418 112.873 133.377H112.869Z" fill="#2A99F4"/>
<path d="M115.134 117.083C114.955 116.715 114.501 116.565 114.141 116.759C112.443 117.683 110.267 119.255 108.476 121.82C106.737 124.308 106.008 126.813 105.708 128.673C105.643 129.078 105.935 129.455 106.34 129.503H106.344C106.729 129.548 107.078 129.276 107.143 128.896C107.418 127.198 108.083 124.916 109.667 122.655C111.296 120.321 113.278 118.891 114.826 118.044C115.166 117.857 115.304 117.44 115.134 117.092V117.083Z" fill="#134191"/>
<path d="M197.841 111.255C197.229 110.955 195.661 110.246 190.628 109.857C184.987 109.419 182.167 109.2 179.326 110.396C176.96 111.388 172.802 113.937 173.191 115.886C174.14 120.656 202.229 120.988 203.222 116.531C203.607 114.809 199.956 112.296 197.841 111.255Z" fill="#C36252"/>
<path d="M260.851 168.566C256.3 162.824 253.909 160.494 246.157 151.936C239.885 145.015 240.76 145.772 235.18 139.666C227.712 131.488 227.781 131.914 225.816 129.333C221.942 124.247 221.058 121.8 217.095 118.355C216.35 117.707 213.999 115.721 211.929 113.995C210.036 112.419 208.78 111.394 207.086 109.797C205.984 108.76 205.008 107.808 205.008 107.808C203.901 106.73 203.403 106.215 202.406 105.275C200.546 103.528 200.137 103.314 199.825 103.176C198.625 102.657 197.523 102.775 196.757 102.852C194.067 103.131 191.364 103.306 188.685 103.658C183.142 104.392 182.891 103.974 181.258 104.789C178.851 105.988 176.898 107.856 176.898 107.856C176.318 108.411 176.278 108.529 175.605 109.149C173.368 111.207 172.258 111.337 172.213 112.054C172.149 113.136 174.56 114.895 176.894 114.635C179.742 114.323 180.046 111.272 183.191 110.762C184.97 110.47 184.832 111.454 187.871 111.568C190.906 111.681 192.146 110.741 194.33 111.568C194.553 111.653 195.444 112.006 196.591 113.023C201.17 117.083 202.131 124.932 202.402 127.392C202.925 132.076 203.184 134.414 201.758 136.27C199.744 138.884 195.935 139.03 192.069 139.175C186.339 139.394 185.14 137.871 178.506 138.045C172.663 138.199 170.888 139.451 169.948 140.468C168.583 141.947 167.586 144.451 168.494 145.797C169.012 146.563 169.997 146.729 172.692 146.927C176.379 147.199 178.993 147.223 179.957 147.251C183.377 147.349 185.821 148.086 189.484 149.188C193.135 150.291 195.761 151.514 198.362 152.742C202.374 154.63 202.212 154.934 205.79 156.616C209.396 158.314 212.318 159.303 216.285 160.652C222.456 162.747 223.291 162.633 225.811 164.044C228.563 165.583 230.471 167.342 232.433 169.372C240.099 177.314 244.703 185.196 244.703 185.196C255.218 203.2 254.906 210.153 258.103 210.222C263.865 210.34 272.873 187.878 265.369 174.543C264.846 173.615 263.513 171.933 260.847 168.57L260.851 168.566Z" fill="#F6A698"/>
<path d="M185.493 141.915C183.155 140.464 182.284 139.216 180.711 138.057C180.047 138.033 179.317 138.029 178.511 138.053C172.668 138.207 170.893 139.46 169.953 140.477C169.138 141.36 168.453 142.608 168.227 143.755C169.377 143.066 170.937 142.349 172.87 142.016C176.076 141.465 178.624 142.272 180.582 142.912C185.837 144.638 185.704 146.551 190.501 148.257C192.147 148.84 195.846 150.101 200.364 149.177C204.226 148.386 208.457 146.052 208.169 144.902C207.691 142.977 195.413 148.074 185.489 141.915H185.493Z" fill="#DD7472"/>
<path d="M192.29 114.27L185.036 113.391C183.606 113.095 182.119 113.496 181.037 114.477L180.393 115.06L160.16 112.706V122.824L168.998 125.446C166.109 128.834 166.453 134.025 169.966 136.975C172.742 139.305 176.247 140.585 179.874 140.585H188.578L194.579 117.633C194.993 116.053 193.915 114.473 192.294 114.274L192.29 114.27Z" fill="#03133F"/>
<path d="M198.38 111.795C196.183 110.421 194.587 109.421 192.569 109.643C191.479 109.765 190.433 110.223 188.695 109.968C187.423 109.781 187.411 109.449 186.219 109.214C183.5 108.679 181.113 109.927 180.623 110.182C178.723 111.175 178.788 112.014 177.503 112.658C176.474 113.173 174.869 113.416 172.268 112.387C172.62 113.461 174.792 114.875 176.903 114.64C179.752 114.328 180.056 111.276 183.2 110.766C184.979 110.474 184.841 111.459 187.881 111.572C190.916 111.686 192.156 110.746 194.34 111.572C194.563 111.657 195.454 112.01 196.601 113.027C201.18 117.087 202.14 124.936 202.412 127.396C202.432 127.562 202.448 127.72 202.464 127.878C207.323 127.522 209.219 126.383 209.685 125.034C210.994 121.245 201.743 113.898 198.384 111.795H198.38Z" fill="#EA9488"/>
<path d="M204.041 107.651C202.931 107.286 201.792 106.978 200.649 106.743C197.918 106.176 195.775 106.131 193.7 106.087C191.508 106.042 190.709 106.164 190.004 106.273C189.364 106.37 188.756 106.463 187.087 106.411L186.762 106.399C185.421 106.35 184.157 106.301 183.387 107.229C182.852 107.878 182.548 109.016 183.002 109.932C183.075 110.082 183.168 110.22 183.278 110.349C183.48 110.589 183.857 110.568 184.039 110.309C184.165 110.131 184.157 109.892 184.019 109.725C183.958 109.657 183.91 109.58 183.869 109.499C183.582 108.923 183.849 108.182 184.133 107.841C184.595 107.282 185.583 107.318 186.726 107.359L187.054 107.371C188.817 107.428 189.465 107.331 190.15 107.225C190.851 107.116 191.572 107.006 193.68 107.051C195.71 107.096 197.809 107.136 200.455 107.687C201.561 107.918 202.663 108.21 203.733 108.567C203.984 108.652 204.256 108.518 204.345 108.267C204.434 108.011 204.3 107.732 204.041 107.647V107.651Z" fill="#DD7472"/>
<path d="M184.646 104.882C184.585 104.615 184.314 104.453 184.046 104.522C183.013 104.797 182.028 105.174 181.112 105.652C179.812 106.329 178.867 107.083 177.563 108.124C176.947 108.618 176.663 108.878 176.44 109.084C176.205 109.303 176.035 109.461 175.561 109.806C175.383 109.935 175.225 110.049 175.087 110.142C174.568 110.503 174.228 110.742 174.029 111.22C173.75 111.893 173.887 112.711 174.442 113.659C174.584 113.902 174.904 113.975 175.135 113.817C175.346 113.676 175.407 113.392 175.277 113.173C174.888 112.509 174.767 111.966 174.921 111.593C175.006 111.386 175.164 111.269 175.638 110.936C175.78 110.835 175.946 110.722 176.128 110.588C176.647 110.211 176.841 110.029 177.093 109.794C177.32 109.587 177.575 109.348 178.162 108.878C179.423 107.869 180.334 107.143 181.554 106.507C182.409 106.062 183.333 105.709 184.297 105.45C184.549 105.385 184.699 105.13 184.642 104.874L184.646 104.882Z" fill="#DD7472"/>
<path d="M214.835 140.633C213.725 137.845 213.781 135.511 213.06 135.467C212.12 135.406 212.217 139.353 209.668 142.57C205.839 147.408 198.898 146.967 199.011 148.061C199.1 148.891 203.169 149.848 206.759 148.705C208.181 148.255 208.663 147.749 210.633 147.25C211.354 147.068 213.287 146.598 215.313 146.764C219.317 147.096 221.197 151.015 222.092 149.507C222.858 148.223 217.096 146.314 214.827 140.629L214.835 140.633Z" fill="#CC6F62"/>
<path d="M160.16 121.527L174.043 125.644L182.763 114.039L160.16 111.409V121.527Z" fill="#0E2F77"/>
<path d="M192.287 112.976L185.034 112.096C183.604 111.8 182.116 112.202 181.035 113.182L169.745 123.373C166.07 126.692 166.171 132.491 169.964 135.68C172.74 138.01 176.245 139.29 179.872 139.29H188.576L194.577 116.339C194.99 114.759 193.912 113.178 192.291 112.98L192.287 112.976Z" fill="#07195B"/>
<path d="M202.327 149.133C211.836 146.5 217.41 136.656 214.777 127.147C212.143 117.638 202.299 112.064 192.79 114.697C183.281 117.331 177.707 127.175 180.341 136.684C182.974 146.193 192.818 151.767 202.327 149.133Z" fill="#0E2F77"/>
<path d="M204.545 144.981C211.751 141.125 214.467 132.157 210.611 124.951C206.755 117.745 197.788 115.029 190.581 118.885C183.375 122.74 180.659 131.708 184.515 138.914C188.371 146.121 197.338 148.837 204.545 144.981Z" fill="#07195B"/>
<path d="M197.884 144.689C189.711 144.689 183.086 138.064 183.086 129.891C183.086 129.433 183.106 128.979 183.151 128.529C182.895 129.615 182.762 130.746 182.762 131.909C182.762 140.082 189.387 146.707 197.56 146.707C205.276 146.707 211.609 140.803 212.298 133.27C210.77 139.815 204.899 144.689 197.884 144.689Z" fill="#021549"/>
<path d="M200.298 142.819C207.047 140.775 210.861 133.647 208.817 126.898C206.773 120.149 199.645 116.335 192.896 118.379C186.147 120.423 182.333 127.551 184.377 134.3C186.421 141.049 193.549 144.863 200.298 142.819Z" fill="#258AEF"/>
<path d="M188.235 127.925C188.235 124.238 189.799 120.919 192.295 118.589C187.356 120.352 183.822 125.072 183.822 130.616C183.822 137.666 189.54 143.384 196.591 143.384C199.958 143.384 203.017 142.079 205.299 139.952C203.958 140.43 202.511 140.693 201.003 140.693C193.953 140.693 188.235 134.976 188.235 127.925Z" fill="#1978E0"/>
<path d="M176.947 118.727C176.351 118.727 175.869 119.209 175.869 119.804C175.869 120.4 176.351 120.882 176.947 120.882C177.543 120.882 178.025 120.4 178.025 119.804C178.025 119.209 177.543 118.727 176.947 118.727Z" fill="#183B93"/>
<path d="M198.325 121.833C197.033 124.07 204.092 128.803 205.267 125.387C206.154 122.806 199.695 119.459 198.325 121.833Z" fill="#6EC4FF"/>
<path d="M207.125 133.376C206.967 133.417 205.123 133.919 204.22 135.638C203.45 137.104 203.616 138.985 204.629 140.541C206.849 138.742 208.454 136.209 209.078 133.312C208.547 133.218 207.875 133.186 207.129 133.376H207.125Z" fill="#2A99F4"/>
<path d="M211.512 121.821C209.725 119.26 207.549 117.688 205.847 116.76C205.486 116.561 205.032 116.711 204.854 117.084C204.684 117.437 204.822 117.858 205.162 118.044C206.71 118.887 208.692 120.322 210.321 122.656C211.901 124.921 212.57 127.202 212.845 128.896C212.906 129.281 213.254 129.549 213.643 129.504H213.647C214.057 129.455 214.348 129.078 214.28 128.673C213.98 126.813 213.25 124.305 211.512 121.821Z" fill="#134191"/>
<path d="M161.265 123.186C164.617 122.395 166.693 119.036 165.902 115.684C165.111 112.332 161.752 110.256 158.4 111.047C155.048 111.838 152.971 115.197 153.763 118.549C154.554 121.901 157.913 123.977 161.265 123.186Z" fill="#07195B"/>
<path d="M303.445 188.468C302.051 186.9 301.41 186.333 295.146 180.607C286.652 172.843 282.029 168.584 275.651 163.458C273.649 161.849 272.385 160.885 270.744 159.807C268.195 158.129 266.558 157.368 260.419 154.175C256.946 152.367 246.455 140.924 246.455 140.924C242.472 139.992 242.382 147.104 232.86 156.407C222.178 166.842 219.277 163.106 218.653 166.789C218.304 168.856 228.877 179.48 231.036 184.29C235.012 193.14 248.68 214.025 265.966 232.799C298.858 268.519 348.302 251.994 317.437 204.426C315.873 202.015 307.971 193.562 303.437 188.468H303.445Z" fill="#3E51C1"/>
<path d="M252.524 161.646C252.058 161.366 251.454 161.508 251.167 161.97C250.194 163.514 249.128 165.001 247.986 166.403C243.54 171.857 237.875 176.201 231.129 179.326C230.634 179.553 230.419 180.136 230.638 180.634C230.865 181.149 231.469 181.372 231.979 181.137C238.998 177.883 244.898 173.357 249.533 167.668C250.729 166.201 251.843 164.649 252.856 163.04C253.156 162.566 253.006 161.938 252.524 161.646Z" fill="#283AA3"/>
<path d="M81.7708 201.956C81.7708 201.956 46.2414 201.709 2.18618 219.575C-0.73138 220.758 -10.874 240.812 1.31092 248.167C15.7083 256.855 32.9948 253.301 57.3889 250.594C81.6574 247.9 94.3731 245.934 98.8386 244.613C118.362 238.823 129.546 233.288 138.647 227.432C148.591 221.038 153.563 217.841 153.146 214.36C151.723 202.442 90.2399 202.017 81.7627 201.956H81.7708Z" fill="#3845B8"/>
<path d="M66.2264 203.039C60.7357 211.537 51.2293 225.281 36.22 234.022C23.3463 241.519 9.4676 243.719 -3.0293 243.618C-2.10135 245.388 -0.699298 246.952 1.31463 248.168C14.5207 256.139 30.162 253.805 51.4846 251.276C49.3045 249.781 47.9835 247.791 47.8822 245.684C47.4121 235.914 73.1353 216.744 73.9498 202.306C71.7738 202.464 69.1845 202.699 66.2304 203.039H66.2264Z" fill="#283AA3"/>
<path d="M87.126 156.407C77.6034 147.104 77.5143 139.992 73.531 140.924C73.531 140.924 63.0399 152.367 59.5672 154.175C53.4322 157.368 51.7911 158.129 49.2423 159.807C47.6011 160.885 46.3368 161.849 44.3351 163.458C37.9569 168.584 33.3334 172.839 24.8401 180.607C18.5795 186.333 17.9392 186.9 16.5412 188.468C12.0068 193.562 4.10511 202.015 2.54097 204.426C-28.3244 251.99 21.1202 268.515 54.0117 232.799C71.2982 214.025 84.9621 193.14 88.9414 184.29C91.1012 179.48 101.677 168.86 101.325 166.789C100.701 163.106 97.8035 166.842 87.1179 156.407H87.126Z" fill="#3E51C1"/>
<path d="M88.8667 179.325C82.1239 176.2 76.4549 171.857 72.0097 166.402C70.867 165 69.7972 163.509 68.8287 161.969C68.541 161.511 67.9372 161.365 67.4712 161.645C66.989 161.933 66.8391 162.561 67.139 163.039C68.152 164.648 69.2664 166.204 70.4618 167.667C75.0974 173.356 81.0015 177.886 88.0158 181.136C88.5263 181.371 89.1301 181.148 89.357 180.634C89.5758 180.135 89.357 179.556 88.8667 179.325Z" fill="#283AA3"/>
<path d="M223.54 269.709C224.294 264.299 226.069 255.453 228.119 246.299C225.477 244.002 222.969 241.562 221.591 241.68C217.965 241.984 216.076 258.76 215.691 261.454C210.059 300.894 209.536 329.182 211.359 347.66C211.663 350.724 212.02 353.978 212.441 357.406H225.262C221.166 328.745 219.48 298.787 223.536 269.709H223.54Z" fill="#283AA3"/>
<path d="M102.662 261.247C102.277 258.553 100.393 241.773 96.7623 241.473C95.2752 241.347 92.463 244.212 89.5859 246.651C95.0969 264.193 99.7002 288.518 98.8857 323.31C98.7479 329.235 98.3265 340.398 95.6318 357.401H105.888C106.321 353.9 106.69 350.577 106.998 347.453C108.822 328.975 108.303 300.691 102.666 261.247H102.662Z" fill="#283AA3"/>
<path d="M269.397 236.286H52.6543V251.231H269.397V236.286Z" fill="#3845B8"/>
</g>
</svg>
