<svg width="320" height="320" viewBox="0 0 320 320" fill="none" xmlns="http://www.w3.org/2000/svg">
<path d="M160 320C248.366 320 320 248.366 320 160C320 71.6344 248.366 0 160 0C71.6344 0 0 71.6344 0 160C0 248.366 71.6344 320 160 320Z" fill="#19A482"/>
<mask id="mask0_4361_10993" style="mask-type:luminance" maskUnits="userSpaceOnUse" x="0" y="0" width="320" height="320">
<path d="M160 320C248.366 320 320 248.366 320 160C320 71.6344 248.366 0 160 0C71.6344 0 0 71.6344 0 160C0 248.366 71.6344 320 160 320Z" fill="white"/>
</mask>
<g mask="url(#mask0_4361_10993)">
<path d="M300.676 313.707C298.67 288.47 294.375 289.199 294.594 279.563C295.81 225.507 303.027 215.486 294.193 204.403C276.525 182.234 273.425 184.985 262.655 207.049C258.027 216.531 288.893 251.352 257.427 230.398C239.229 218.278 249.996 359.411 255.332 379.477C258.359 390.852 260.325 401.059 260.641 402.725C261.362 406.497 262.57 413.183 263.878 423.135C267.509 450.678 269.629 500.062 266.642 514.034C264.644 523.374 305.977 524.849 306.357 520.651C308.979 491.654 312.549 471.567 308.87 420.226C305.912 378.91 304.157 357.454 300.676 313.702V313.707Z" fill="#121251"/>
<path d="M255.019 46.608C242.975 65.9166 231.374 106.074 233.757 110.802C237.785 118.797 250.841 123.676 257.377 119.531C263.97 115.353 259.488 104.821 259.431 62.529C259.419 52.0744 259.16 39.9624 255.019 46.6039V46.608Z" fill="#1A90E8"/>
<path d="M351.122 345.61C348.78 320.401 348.926 298.357 349.015 288.721C349.509 234.653 356.589 224.539 347.609 213.574C329.646 191.643 273.106 197.689 262.631 219.895C258.129 229.438 265.378 235.091 276.676 271.163C288.69 309.517 282.6 309.853 294.234 341.395C298.93 354.131 305.487 369.161 311.091 389.154C314.268 400.488 316.371 410.667 316.711 412.329C317.481 416.089 318.778 422.759 320.224 432.695C324.22 460.185 327 509.536 324.2 523.549C322.327 532.913 363.676 533.837 364 529.635C366.233 500.605 369.535 480.474 365.171 429.186C361.662 387.914 355.187 389.312 351.126 345.61H351.122Z" fill="#191960"/>
<path d="M333.835 -29.7228C334.799 -33.5805 312.362 0.522565 298.751 -1.23203C291.538 -2.16402 287.291 -10.4912 285.014 -9.03651C283.361 -7.97889 287.559 0.234863 288.649 8.44456C289.062 11.5485 288.264 17.9996 285.638 27.4857C282.421 39.1155 275.532 41.7615 276.898 44.6548C280.767 52.8523 338.908 37.6972 338.705 23.7415C338.649 19.9973 323.72 10.6327 333.831 -29.7228H333.835Z" fill="#EB8E6C"/>
<path d="M298.754 -1.23241C291.541 -2.16441 287.294 -10.4916 285.021 -9.03689C283.494 -8.06032 286.966 -0.956862 288.36 6.60044C289.831 8.56979 291.833 10.4824 294.556 11.8764C295.869 12.549 299.986 14.4495 305.055 13.7039C313.01 12.5328 317.763 5.67249 321.26 0.465451C327.723 -9.15846 330.681 -19.4793 331.986 -28.2158C326.422 -21.6918 309.719 0.181798 298.754 -1.23241Z" fill="#C36252"/>
<path d="M338.243 18.7479C332.375 13.4031 332.602 12.6251 330.75 12.1915C325.924 11.0609 322.528 15.8911 309.213 26.2404C298.017 34.9363 292.854 37.4 288.142 36.075C285.621 35.3658 286.853 25.0895 284.397 25.049C282.051 25.0125 258.22 35.9737 252.572 50.8816C242.137 78.4202 248.321 137.173 242.806 189.186C239.272 222.495 236.663 248.149 239.11 254.078C246.052 270.886 354.431 265.89 355.31 254.941C355.837 248.389 355.683 257.656 356.502 211.664C356.708 200.143 357.219 191.326 357.438 187.784C358.447 171.539 359.849 161.405 362.118 143.304C365.461 116.644 370.761 103.167 371.811 84.7861C372.601 70.9682 378.051 57.7217 359.05 37.7202C353.398 31.7675 345.006 24.9193 338.239 18.7519L338.243 18.7479Z" fill="#15B0ED"/>
<path d="M362.118 81.4922C350.29 109.051 356.705 125.924 345.002 148.596C338.527 161.142 330.24 168.221 320.353 176.67C299.05 194.868 271.792 196.412 243.402 206.842C242.985 212.884 247.547 207.324 247.215 212.479C260.024 207.191 298.73 206.972 334.15 189.308C353.589 179.616 367.167 100.805 368.217 82.4283C368.472 77.9871 368.687 73.3717 368.606 68.7725C366.394 72.4964 364.165 76.7431 362.123 81.4963L362.118 81.4922Z" fill="#1A90E8"/>
<path d="M285.359 48.4305C284.338 48.0293 283.074 48.7992 282.543 50.1486C282.008 51.502 282.405 52.9243 283.426 53.3295C284.447 53.7307 285.712 52.9608 286.242 51.6114C286.777 50.258 286.38 48.8357 285.359 48.4305Z" fill="#191960"/>
<path d="M278.519 65.7776C277.498 65.3724 276.234 66.1464 275.703 67.4958C275.168 68.8492 275.565 70.2715 276.586 70.6767C277.607 71.0779 278.872 70.308 279.403 68.9586C279.937 67.6052 279.54 66.1829 278.519 65.7776Z" fill="#191960"/>
<path d="M314.475 -71.7768C305.487 -74.0096 294.028 -72.3441 287.443 -65.2204C283.82 -61.302 282.836 -56.9864 281.008 -48.9874C279.484 -42.3175 279.444 -37.0862 279.399 -30.8823C279.355 -24.6784 279.825 -21.1287 280.688 -14.6493C281.288 -10.1311 285.567 0.700312 291.629 4.39184C294.64 6.22747 297.671 6.72589 300.317 6.88798C302.169 7.00144 306.168 7.2081 310.613 5.32789C314.24 3.79212 316.27 1.67284 319.945 -2.16457C321.291 -3.57067 324.095 -6.52471 326.704 -10.5931C333.338 -20.9383 334.274 -31.5793 334.748 -37.7507C335.477 -47.2328 335.842 -51.9739 333.139 -57.4159C327.742 -68.2839 315.816 -71.4405 314.475 -71.7768Z" fill="#EB8E6C"/>
<path d="M248.794 103.796H68.5781V204.423H248.794V103.796Z" fill="#7CB7CE"/>
<path d="M248.794 103.796H68.5781V226.37H248.794V103.796Z" fill="#F5BD73"/>
<path d="M129.409 103.796H68.5781V226.37H129.409V103.796Z" fill="#F9CE8F"/>
<path d="M224.745 173.984C212.771 193.669 199.93 204.821 195.942 208.143C185.723 216.665 175.272 222.468 165.275 226.37H248.799V103.796H248.681C245.715 125.305 239.033 150.489 224.745 173.984Z" fill="#EFB26A"/>
<path d="M330.748 12.1915C325.922 11.0609 322.526 15.8911 309.211 26.2404C298.015 34.9363 292.852 37.4 288.14 36.075C285.619 35.3658 284.456 25.5596 282.001 25.5191C281.134 25.5069 276.457 35.3699 272.219 38.8831C274.46 38.0565 279.934 34.9849 280.858 35.6171C283.573 37.477 283.249 44.7466 283.249 44.7466C283.249 44.7466 288.152 42.1694 293.185 41.0956C297.946 40.0785 302.148 41.9466 303.226 42.4652C307.647 44.5967 307.837 47.3279 310.074 47.4859C314.442 47.7979 317.384 37.631 322.17 30.1385C324.885 25.8878 329.115 21.0698 336.044 16.6934C332.402 13.1843 332.333 12.5643 330.748 12.1915Z" fill="#1A90E8"/>
<path d="M334.964 8.67984C334.559 7.41556 334.62 6.77127 334.028 5.16661C333.428 3.54169 333.128 2.7272 332.622 2.35845C329.858 0.332368 307.717 23.292 300.828 31.1653C297.891 34.5205 291.091 34.9298 288.652 34.9298C286.058 34.9298 286.978 37.5475 287.083 38.1756C287.391 39.9991 297.781 34.6705 304.994 39.5817C308.143 41.7253 308.029 42.9653 309.674 43.0949C314.991 43.5164 315.214 30.5454 326.531 22.0236C331.264 18.4618 337.877 15.7185 337.302 12.8941C337.067 11.7473 335.795 11.3016 334.96 8.67984H334.964Z" fill="#31D2F7"/>
<path d="M287.995 17.3677C288.25 14.6366 281.126 23.5797 279.481 26.0029C275.299 32.1582 271.766 38.5849 272.224 38.8807C272.852 39.2819 281.576 26.9268 281.823 28.6976C282.407 32.9119 285.596 38.5363 287.091 38.1797C288.469 37.8515 289.089 35.4688 288.659 34.9339C284.688 29.9902 287.496 22.7044 287.999 17.3677H287.995Z" fill="#31D2F7"/>
<path d="M286.378 37.8017C286.022 37.6112 285.58 37.7328 285.373 38.0813C283.149 41.7769 280.284 46.838 278.371 50.5458C272.512 61.8878 270.23 76.0663 270.21 76.2082L270.068 77.1077L270.976 77.1928C271.008 77.1928 274.165 77.4927 277.281 77.7196C277.755 77.7561 278.165 77.3955 278.197 76.9254C278.229 76.4553 277.877 76.0461 277.407 76.0137C275.324 75.8597 273.225 75.6773 272.062 75.576C272.662 72.31 275.008 60.7978 279.895 51.3359C281.779 47.689 284.498 42.5427 286.682 38.8674C286.905 38.4946 286.767 38.0124 286.382 37.8098L286.378 37.8017Z" fill="#198BD8"/>
<path d="M317.593 110.867C313.731 123.851 310.469 145.015 310.27 149.197C310.133 152.151 291.132 159.81 274.591 168.506C267.662 172.148 261.956 174.235 256.842 176.107C244.868 180.492 241.12 180.391 233.83 184.572C232.485 185.342 230.682 186.457 227.894 187.21C223.838 188.309 222.107 187.454 215.466 187.279C211.462 187.174 207.211 187.065 201.936 188.086C197.9 188.864 197.442 189.5 193.612 189.929C191.197 190.201 188.028 190.553 184.061 189.938C179.15 189.172 177.128 187.559 175.369 188.839C174.17 189.715 173.773 191.437 173.963 192.697C174.514 196.344 180.208 197.738 180.885 197.896C183.389 198.479 184.005 197.819 189.824 197.766C195.715 197.718 196.546 198.382 196.927 198.864C198.11 200.376 197.178 203.083 195.829 205.968C189.84 218.761 182.039 227.367 181.764 230.22C181.715 230.739 182.035 233.486 183.543 234.074C185.253 234.742 188.608 233.616 188.608 233.616C188.608 233.616 188.543 235.65 189.913 237.255C191.234 238.803 193.073 237.664 195.545 239.333C197.498 240.65 197.028 241.817 198.426 242.454C201.737 243.961 207.912 239.569 207.912 239.569C207.912 239.569 206.117 243.961 207.609 244.281C212.188 245.27 219.964 227.011 228.222 219.105C231.78 215.701 231.905 213.853 234.154 211.694C236.865 209.088 239.888 207.917 243.393 206.851C258.285 202.329 283.303 199.845 323.513 181.76C328.29 179.613 330.288 178.271 332.569 176.245C337.306 172.039 339.486 167.294 340.581 164.794C347.976 147.929 354.374 122.983 355.549 118.441C362.142 93.0015 365.112 89.7395 362.446 87.0326C355.14 79.609 323.387 91.3887 317.589 110.876L317.593 110.867Z" fill="#EB8E6C"/>
<path d="M199.656 219.092C199.339 218.886 198.918 218.971 198.711 219.283C196.843 222.087 194.894 224.883 192.913 227.602C192.325 228.408 191.312 229.515 190.336 230.588C189.667 231.322 189.023 232.027 188.516 232.635C188.265 232.935 188.314 233.38 188.626 233.619C188.917 233.842 189.331 233.798 189.566 233.518C190.056 232.935 190.688 232.238 191.353 231.512C192.354 230.414 193.391 229.275 194.023 228.408C196.017 225.673 197.974 222.865 199.854 220.045C200.065 219.729 199.976 219.303 199.66 219.092H199.656Z" fill="#C36252"/>
<path d="M205.874 223.794C205.534 223.632 205.132 223.773 204.966 224.11C203.285 227.518 201.238 230.727 198.88 233.653C198.049 234.682 196.603 236.084 195.44 237.21C195.192 237.449 194.957 237.676 194.743 237.887C194.471 238.155 194.471 238.592 194.743 238.86C195.01 239.123 195.436 239.123 195.703 238.86C195.914 238.653 196.149 238.426 196.392 238.191C197.583 237.036 199.062 235.602 199.946 234.508C202.369 231.501 204.472 228.206 206.194 224.705C206.364 224.365 206.214 223.948 205.874 223.786V223.794Z" fill="#C36252"/>
<path d="M212.048 229.264C211.611 229.065 207.753 238.859 200.633 241.728C199.803 242.065 199.021 242.267 198.34 242.397C198.368 242.413 198.393 242.425 198.425 242.441C201.48 243.835 206.979 240.201 207.802 239.633C209.82 234.916 214.038 230.167 212.048 229.264Z" fill="#C36252"/>
<path d="M179.41 189.812C178.66 189.508 177.522 189.042 176.367 189.504C176.12 189.601 175.702 189.78 175.39 190.205C174.827 190.983 174.928 192.175 175.52 192.855C175.654 193.009 175.901 193.244 176.934 193.556C178.713 194.091 179.604 194.363 180.334 193.877C181.205 193.293 181.606 191.867 181.1 190.927C180.808 190.384 180.309 190.181 179.41 189.812Z" fill="#FFE8E1"/>
<path d="M363.529 49.6795C360.685 47.3901 355.923 45.9029 351.284 45.6476C339.322 44.9912 330.934 53.6871 329.681 55.0284C325.848 59.1292 324.357 63.1246 321.978 69.7256C318.846 78.4135 319.344 81.5823 317.035 92.9324C313.238 111.593 312.277 121.585 312.277 121.585C314.376 123.563 316.127 121.289 324.276 122.068C336.736 123.255 346.692 129.904 348.281 130.99C351.932 133.487 352.678 135.278 353.058 134.171C359.903 114.21 381.363 64.0404 363.533 49.6836L363.529 49.6795Z" fill="#27C3F2"/>
<path d="M315.36 150.725C313.561 149.756 312.154 149.092 311.162 148.743C310.773 148.605 310.351 148.836 310.262 149.242C310.189 149.578 310.371 149.918 310.7 150.032C311.607 150.348 312.997 151.004 314.711 151.932C317.41 153.391 319.177 155.433 320.247 157.062C320.449 157.37 320.854 157.463 321.171 157.273C321.507 157.07 321.6 156.629 321.385 156.3C319.833 153.938 317.763 152.021 315.36 150.725Z" fill="#C36252"/>
<path d="M333.311 122.736C321.896 120.305 315.996 120.904 313.16 121.192C313.16 121.192 313.152 121.192 313.148 121.192C312.609 121.245 312.163 120.791 312.228 120.252C312.463 118.339 313.054 114.94 313.792 110.669C314.067 109.072 314.371 107.326 314.695 105.441C315.514 100.648 316.405 95.7971 317.342 91.0196C317.431 90.5658 317.135 90.1241 316.681 90.0349H316.653C316.195 89.9377 315.753 90.2375 315.664 90.6914C314.724 95.4851 313.832 100.344 313.014 105.154C312.694 107.038 312.39 108.78 312.114 110.377C310.971 116.97 310.343 120.6 310.42 121.828C310.449 122.262 310.659 122.529 310.83 122.675C311.332 123.101 312.001 123.032 313.338 122.898C316.089 122.618 321.819 122.035 332.963 124.414C341.618 126.257 348.624 131.768 352.389 134.73L352.531 134.844L353.588 133.499L353.446 133.385C349.572 130.338 342.364 124.669 333.319 122.74L333.311 122.736Z" fill="#198BD8"/>
<path d="M351.7 125.187C348.207 122.691 344.435 120.633 340.476 119.06C333.522 116.305 327.379 115.567 323.445 115.43C320.45 115.328 317.431 115.499 314.461 115.94C313.991 116.009 313.671 116.459 313.748 116.929C313.825 117.391 314.258 117.703 314.724 117.634C317.589 117.209 320.499 117.047 323.388 117.144C327.185 117.273 333.121 117.991 339.844 120.653C343.673 122.168 347.32 124.162 350.695 126.573C351.076 126.845 351.603 126.768 351.883 126.391C352.166 126.01 352.085 125.463 351.696 125.187H351.7Z" fill="#198BD8"/>
</g>
</svg>
