<svg width="431" height="431" viewBox="0 0 431 431" fill="none" xmlns="http://www.w3.org/2000/svg">
<g clip-path="url(#clip0_3233_8639)">
<path d="M215.32 430.64C334.238 430.64 430.64 334.238 430.64 215.32C430.64 96.4021 334.238 0 215.32 0C96.4021 0 0 96.4021 0 215.32C0 334.238 96.4021 430.64 215.32 430.64Z" fill="#4B86B4"/>
<path d="M179.93 265.04C173.96 280.56 168 296.07 162.03 311.59C156.51 325.95 142.71 335.42 127.33 335.42C100.53 335.42 82.53 307.91 93.27 283.35L165.77 117.5C171.69 103.96 185.06 95.21 199.83 95.21H230.8C245.57 95.21 258.95 103.96 264.86 117.5L337.36 283.35C348.1 307.91 330.1 335.42 303.3 335.42H301.93C286.55 335.42 272.75 325.95 267.23 311.59L249.33 265.04C237.11 233.27 192.15 233.27 179.93 265.04Z" fill="white"/>
<path d="M205.1 264.17C202.55 268.17 198.13 270.58 193.41 270.58H176.1C164.71 270.58 158.16 257.64 164.9 248.45L184.18 222.13C185.21 220.72 185.95 219.17 186.38 217.56C186.78 216.09 186.78 214.51 186.38 213.04C185.94 211.43 185.21 209.88 184.18 208.47L164.9 182.16C158.16 172.97 164.71 160.03 176.1 160.03H193.41C198.13 160.03 202.55 162.44 205.1 166.44C210.4 174.7 222.37 175 228.11 167.04L228.97 165.81C231.59 162.18 235.8 160.02 240.26 160.02H254.54C266.04 160.02 272.57 173.21 265.58 182.35L247.11 206.54C245.14 209.11 244.19 212.21 244.29 215.29C244.2 218.37 245.15 221.47 247.11 224.04L265.58 248.23C272.57 257.37 266.04 270.56 254.54 270.56H240.26C235.79 270.56 231.58 268.41 228.97 264.77L228.11 263.54C222.37 255.58 210.4 255.88 205.1 264.14V264.17Z" fill="#FEB739"/>
</g>
<defs>
<clipPath id="clip0_3233_8639">
<rect width="430.63" height="430.63" fill="white"/>
</clipPath>
</defs>
</svg>
