<svg width="746" height="194" viewBox="0 0 746 194" fill="none" xmlns="http://www.w3.org/2000/svg">
<path d="M291.03 131.61H253C252.12 131.61 251.33 132.15 251.01 132.97L244.83 149.02C244.51 149.84 243.72 150.38 242.84 150.38H210.61C209.07 150.38 208.04 148.8 208.66 147.4L253.91 43.8904C254.25 43.1104 255.02 42.6104 255.86 42.6104H288.79C289.64 42.6104 290.4 43.1104 290.74 43.8904L335.99 147.4C336.61 148.81 335.57 150.38 334.04 150.38H301.19C300.31 150.38 299.52 149.84 299.2 149.02L293.01 132.97C292.69 132.15 291.9 131.61 291.02 131.61H291.03ZM281.37 102.54L274.01 83.4903C273.31 81.6703 270.74 81.6703 270.03 83.4903L262.67 102.54C262.13 103.94 263.16 105.44 264.66 105.44H279.38C280.88 105.44 281.91 103.94 281.37 102.54Z" fill="#FEB739"/>
<path d="M432.6 68.2999V148.26C432.6 149.44 431.65 150.39 430.47 150.39H401.63C400.45 150.39 399.5 149.44 399.5 148.26V147.12C399.5 145.34 397.47 144.37 396.05 145.45C393.82 147.15 391.38 148.51 388.72 149.54C384.61 151.13 380.25 151.93 375.63 151.93C364.95 151.93 356.38 148.67 349.92 142.15C343.45 135.63 340.22 125.81 340.22 112.67V68.2999C340.22 67.1199 341.17 66.1699 342.35 66.1699H372.88C374.06 66.1699 375.01 67.1199 375.01 68.2999V106.66C375.01 112.41 375.93 116.51 377.78 118.98C379.63 121.45 382.35 122.68 385.94 122.68C389.33 122.68 392.15 121.32 394.41 118.6C396.67 115.88 397.8 111.59 397.8 105.74V68.2999C397.8 67.1199 398.75 66.1699 399.93 66.1699H430.47C431.65 66.1699 432.6 67.1199 432.6 68.2999Z" fill="#FEB739"/>
<path d="M500.391 149.24L491.171 134.85C490.361 133.58 488.521 133.53 487.641 134.76L477.181 149.34C476.781 149.9 476.141 150.23 475.451 150.23H443.131C441.371 150.23 440.371 148.21 441.441 146.81L469.731 109.77C470.301 109.02 470.311 107.98 469.761 107.22L442.211 69.4C441.181 67.99 442.191 66.01 443.931 66.01H477.871C478.581 66.01 479.241 66.36 479.641 66.95L489.291 81.3C490.121 82.54 491.941 82.56 492.801 81.34L503.001 66.9C503.401 66.34 504.051 66 504.741 66H535.851C537.611 66 538.611 68.01 537.551 69.42L510.141 105.69C509.571 106.44 509.561 107.48 510.121 108.23L538.411 146.82C539.441 148.23 538.441 150.21 536.691 150.21H502.181C501.451 150.21 500.781 149.84 500.391 149.23V149.24Z" fill="#FEB739"/>
<path d="M623.9 69.9404C630.11 73.4804 635.04 78.5604 638.68 85.1804C642.32 91.8004 644.15 99.4804 644.15 108.2C644.15 116.92 642.33 124.62 638.68 131.3C635.03 137.97 630.11 143.08 623.9 146.62C617.69 150.16 610.89 151.93 603.5 151.93C595.22 151.93 588.64 150.13 583.77 146.53C582.38 145.5 580.41 146.53 580.41 148.26C580.41 149.44 579.46 150.39 578.28 150.39H549.44C548.26 150.39 547.31 149.44 547.31 148.26V38.2804C547.31 37.1004 548.26 36.1504 549.44 36.1504H579.98C581.16 36.1504 582.11 37.1004 582.11 38.2804V67.4404C582.11 69.1604 584.01 70.1304 585.45 69.1904C590.08 66.1604 596.1 64.6404 603.51 64.6404C610.92 64.6404 617.7 66.4104 623.91 69.9504L623.9 69.9404ZM605.04 120.44C607.6 117.51 608.89 113.44 608.89 108.2C608.89 102.96 607.61 98.9104 605.04 96.0404C602.47 93.1704 599.19 91.7304 595.19 91.7304C591.19 91.7304 587.9 93.1704 585.34 96.0404C582.77 98.9204 581.49 102.97 581.49 108.2C581.49 113.43 582.77 117.52 585.34 120.44C587.9 123.37 591.19 124.83 595.19 124.83C599.19 124.83 602.48 123.37 605.04 120.44Z" fill="#4B86B4"/>
<path d="M743.38 66.1702C744.89 66.1702 745.92 67.7002 745.36 69.1002L711.9 152.09C707.48 163.07 701.99 170.77 695.43 175.18C688.86 179.59 680.8 181.8 671.26 181.8C666.54 181.8 661.79 181.11 657.02 179.72C653.06 178.57 649.79 177.12 647.2 175.37C646.32 174.77 646.01 173.62 646.47 172.66L656.17 152.6C656.72 151.46 658.13 151.07 659.22 151.73C660.44 152.47 661.76 153.1 663.17 153.62C665.38 154.44 667.5 154.85 669.56 154.85C672.68 154.85 675.18 154.09 677.05 152.56C677.76 151.98 677.98 150.97 677.62 150.12L643.99 69.1102C643.41 67.7102 644.44 66.1602 645.96 66.1602H677.03C677.91 66.1602 678.7 66.7001 679.02 67.5201L693.92 106.16C694.62 107.97 697.18 107.98 697.89 106.17L713.06 67.5102C713.38 66.6902 714.17 66.1602 715.04 66.1602H743.38V66.1702Z" fill="#4B86B4"/>
<path d="M96.58 193.16C149.92 193.16 193.16 149.92 193.16 96.58C193.16 43.2403 149.92 0 96.58 0C43.2403 0 0 43.2403 0 96.58C0 149.92 43.2403 193.16 96.58 193.16Z" fill="#4B86B4"/>
<path d="M80.7095 118.89C78.0295 125.85 75.3595 132.81 72.6795 139.77C70.1995 146.21 64.0195 150.46 57.1195 150.46C45.0995 150.46 37.0195 138.12 41.8395 127.1L74.3595 52.71C77.0095 46.64 83.0095 42.71 89.6395 42.71H103.53C110.16 42.71 116.16 46.63 118.81 52.71L151.33 127.11C156.15 138.13 148.07 150.47 136.05 150.47H135.44C128.54 150.47 122.35 146.22 119.88 139.78L111.85 118.9C106.37 104.65 86.1995 104.65 80.7195 118.9L80.7095 118.89Z" fill="white"/>
<path d="M91.9996 118.5C90.8596 120.3 88.8796 121.38 86.7596 121.38H78.9896C73.8796 121.38 70.9396 115.58 73.9696 111.45L82.6196 99.65C83.0796 99.02 83.4096 98.32 83.6096 97.6C83.7896 96.94 83.7896 96.23 83.6096 95.57C83.4096 94.85 83.0796 94.15 82.6196 93.52L73.9696 81.72C70.9496 77.6 73.8896 71.79 78.9896 71.79H86.7596C88.8796 71.79 90.8596 72.87 91.9996 74.67C94.3796 78.38 99.7396 78.51 102.32 74.94L102.7 74.39C103.87 72.76 105.76 71.79 107.77 71.79H114.18C119.34 71.79 122.27 77.71 119.13 81.81L110.85 92.66C109.97 93.81 109.54 95.2 109.58 96.58C109.54 97.96 109.96 99.35 110.85 100.5L119.13 111.35C122.27 115.45 119.34 121.37 114.18 121.37H107.77C105.77 121.37 103.88 120.4 102.7 118.77L102.32 118.22C99.7496 114.65 94.3796 114.78 91.9996 118.49V118.5Z" fill="#FEB739"/>
</svg>
