<svg width="37" height="36" viewBox="0 0 37 36" fill="none" xmlns="http://www.w3.org/2000/svg">
<path d="M5.11523 12.1855C5.11523 10.798 5.11523 10.1043 5.54628 9.67323C5.97732 9.24219 6.67107 9.24219 8.05858 9.24219H24.1434C24.9145 9.24219 25.3001 9.24219 25.6255 9.41632C25.9508 9.59046 26.1647 9.91126 26.5924 10.5529L30.5169 16.4396C31.0445 17.2309 31.3083 17.6266 31.3083 18.0722C31.3083 18.5178 31.0445 18.9135 30.5169 19.7049L26.5924 25.5916C26.1647 26.2332 25.9508 26.554 25.6255 26.7281C25.3001 26.9023 24.9145 26.9023 24.1434 26.9023H8.05858C6.67107 26.9023 5.97732 26.9023 5.54628 26.4712C5.11523 26.0402 5.11523 25.3464 5.11523 23.9589V12.1855Z" stroke="#F9F9F9" stroke-width="2.94335"/>
<circle cx="22.7764" cy="18.0723" r="1.47167" fill="#F9F9F9" stroke="#F9F9F9" stroke-width="2.94335"/>
</svg>
