<svg width="37" height="37" viewBox="0 0 37 37" fill="none" xmlns="http://www.w3.org/2000/svg">
<path fill-rule="evenodd" clip-rule="evenodd" d="M21.505 5.91362V5.91364C21.6257 7.12128 21.6861 7.72509 21.9387 8.05641C22.2595 8.47707 22.7813 8.69322 23.3056 8.62257C23.7185 8.56693 24.1881 8.1827 25.1273 7.41424L25.1273 7.41422C25.6235 7.00824 25.8716 6.80525 26.1386 6.71992C26.4779 6.61145 26.8451 6.62976 27.172 6.77146C27.4291 6.88293 27.6558 7.1096 28.1091 7.56294L29.4242 8.87806C29.8778 9.33158 30.1045 9.55835 30.216 9.8156C30.3576 10.1424 30.3759 10.5094 30.2675 10.8486C30.1822 11.1157 29.9791 11.3639 29.573 11.8603C28.8042 12.7999 28.4198 13.2697 28.3642 13.6828C28.2937 14.2068 28.5098 14.7284 28.9302 15.0491C29.2616 15.3019 29.8657 15.3623 31.074 15.4831L31.074 15.4831C31.7126 15.547 32.0318 15.5789 32.2811 15.7075C32.5974 15.8707 32.8439 16.1431 32.9748 16.4741C33.078 16.7349 33.078 17.0557 33.078 17.6974V19.5572C33.078 20.1981 33.078 20.5185 32.9751 20.779C32.8441 21.1106 32.5973 21.3833 32.2805 21.5466C32.0315 21.6749 31.7127 21.7068 31.075 21.7705L31.075 21.7705L31.075 21.7705C29.868 21.8912 29.2645 21.9516 28.9333 22.204C28.5123 22.5248 28.2961 23.0469 28.3669 23.5714C28.4226 23.9841 28.8068 24.4537 29.5751 25.3928L29.5752 25.3928C29.9813 25.8892 30.1844 26.1374 30.2697 26.4044C30.3781 26.7437 30.3598 27.1108 30.2182 27.4377C30.1067 27.6948 29.88 27.9215 29.4266 28.375L28.112 29.6896C27.658 30.1435 27.4311 30.3705 27.1736 30.4819C26.8471 30.6233 26.4804 30.6416 26.1415 30.5334C25.8741 30.4481 25.6257 30.2449 25.1289 29.8384L25.1289 29.8384C24.1885 29.0689 23.7183 28.6842 23.3048 28.6288C22.7812 28.5586 22.2602 28.7744 21.9396 29.1943C21.6864 29.5259 21.6259 30.1304 21.505 31.3395C21.4412 31.9782 21.4092 32.2976 21.2805 32.547C21.1173 32.8631 20.8451 33.1094 20.5143 33.2404C20.2534 33.3436 19.9324 33.3436 19.2905 33.3436H17.4317C16.7901 33.3436 16.4693 33.3436 16.2085 33.2405C15.8775 33.1095 15.6051 32.8631 15.4419 32.5467C15.3133 32.2975 15.2814 31.9782 15.2175 31.3398C15.0967 30.1314 15.0363 29.5272 14.7833 29.1957C14.4627 28.7755 13.9413 28.5596 13.4174 28.63C13.0042 28.6855 12.5342 29.07 11.5942 29.8391L11.5942 29.8391C11.0975 30.2455 10.8491 30.4487 10.5819 30.534C10.2429 30.6423 9.87605 30.624 9.54944 30.4825C9.29204 30.371 9.06516 30.1442 8.61141 29.6904L7.29677 28.3758C6.8432 27.9222 6.61642 27.6954 6.50494 27.4381C6.36338 27.1114 6.34508 26.7444 6.45343 26.4053C6.53874 26.1382 6.74188 25.8899 7.14814 25.3933C7.91685 24.4538 8.3012 23.984 8.35683 23.5711C8.42743 23.0469 8.21131 22.5251 7.79072 22.2044C7.45938 21.9517 6.85555 21.8913 5.6479 21.7706C5.00988 21.7068 4.69088 21.6749 4.44176 21.5464C4.12515 21.3832 3.87849 21.1106 3.74755 20.7793C3.64453 20.5187 3.64453 20.1981 3.64453 19.5569V17.6977C3.64453 17.0557 3.64453 16.7348 3.7478 16.4738C3.87872 16.143 4.12503 15.8708 4.44116 15.7077C4.69053 15.5789 5.01002 15.547 5.649 15.4831H5.64901C6.85781 15.3622 7.46221 15.3018 7.79368 15.0488C8.21386 14.7282 8.42981 14.2068 8.35944 13.6829C8.30392 13.2697 7.9194 12.7997 7.15036 11.8598L7.15036 11.8598C6.74407 11.3632 6.54092 11.1149 6.45561 10.8477C6.34732 10.5086 6.36561 10.1418 6.50711 9.8151C6.61859 9.55775 6.84543 9.33091 7.29911 8.87722L8.61422 7.56211L8.61423 7.56211C9.06741 7.10892 9.29401 6.88233 9.55103 6.77087C9.87801 6.62908 10.2453 6.61076 10.5848 6.71931C10.8516 6.80464 11.0997 7.00757 11.5957 7.41342C12.5346 8.18161 13.004 8.5657 13.4168 8.62141C13.9412 8.69219 14.4633 8.47594 14.7841 8.05505C15.0366 7.72381 15.0969 7.12027 15.2176 5.91321V5.9132C15.2814 5.27549 15.3133 4.95664 15.4416 4.70762C15.6049 4.39082 15.8776 4.14403 16.2091 4.01308C16.4696 3.91016 16.7901 3.91016 17.4309 3.91016H19.2912C19.9324 3.91016 20.2531 3.91016 20.5137 4.01319C20.845 4.14413 21.1175 4.39077 21.2808 4.70736C21.4092 4.95648 21.4411 5.27553 21.505 5.91362ZM18.3613 24.5136C21.6124 24.5136 24.2479 21.878 24.2479 18.6269C24.2479 15.3757 21.6124 12.7402 18.3613 12.7402C15.1101 12.7402 12.4746 15.3757 12.4746 18.6269C12.4746 21.878 15.1101 24.5136 18.3613 24.5136Z" fill="#F9F9F9"/>
</svg>
