<svg width="25" height="25" viewBox="0 0 25 25" fill="none" xmlns="http://www.w3.org/2000/svg">
<path d="M12.4746 12.4628C10.8557 12.4628 9.46989 11.8864 8.31708 10.7336C7.16427 9.58081 6.58786 8.19499 6.58786 6.57615C6.58786 4.95731 7.16427 3.57148 8.31708 2.41867C9.46989 1.26586 10.8557 0.689453 12.4746 0.689453C14.0934 0.689453 15.4792 1.26586 16.632 2.41867C17.7848 3.57148 18.3613 4.95731 18.3613 6.57615C18.3613 8.19499 17.7848 9.58081 16.632 10.7336C15.4792 11.8864 14.0934 12.4628 12.4746 12.4628ZM2.17285 24.2362C1.36006 24.2362 0.701172 23.5773 0.701172 22.7646V20.1155C0.701172 19.2816 0.916036 18.5149 1.34577 17.8153C1.77451 17.1168 2.34454 16.5835 3.05585 16.2156C4.57658 15.4552 6.12183 14.8847 7.69162 14.5041C9.2614 14.1244 10.8557 13.9345 12.4746 13.9345C14.0934 13.9345 15.6877 14.1244 17.2575 14.5041C18.8273 14.8847 20.3725 15.4552 21.8933 16.2156C22.6046 16.5835 23.1746 17.1168 23.6034 17.8153C24.0331 18.5149 24.2479 19.2816 24.2479 20.1155V22.7646C24.2479 23.5773 23.5891 24.2362 22.7763 24.2362H2.17285ZM3.64452 20.1155C3.64452 20.7658 4.17163 21.2929 4.82186 21.2929H20.1273C20.7775 21.2929 21.3046 20.7658 21.3046 20.1155C21.3046 19.8457 21.2374 19.6005 21.103 19.3797C20.9676 19.159 20.7895 18.9873 20.5688 18.8646C19.2443 18.2024 17.9075 17.7054 16.5585 17.3738C15.2094 17.0432 13.8481 16.8779 12.4746 16.8779C11.101 16.8779 9.7397 17.0432 8.39067 17.3738C7.04163 17.7054 5.70486 18.2024 4.38035 18.8646C4.1596 18.9873 3.98202 19.159 3.84761 19.3797C3.71222 19.6005 3.64452 19.8457 3.64452 20.1155ZM12.4746 9.51949C13.284 9.51949 13.9771 9.23104 14.554 8.65415C15.1299 8.07823 15.4179 7.38557 15.4179 6.57615C15.4179 5.76673 15.1299 5.07406 14.554 4.49814C13.9771 3.92125 13.284 3.6328 12.4746 3.6328C11.6651 3.6328 10.9725 3.92125 10.3966 4.49814C9.81966 5.07406 9.53121 5.76673 9.53121 6.57615C9.53121 7.38557 9.81966 8.07823 10.3966 8.65415C10.9725 9.23104 11.6651 9.51949 12.4746 9.51949Z" fill="#F9F9F9"/>
</svg>
